<?xml version="1.0" standalone="no"?>
<!DOCTYPE svg PUBLIC "-//W3C//DTD SVG 20010904//EN"
 "http://www.w3.org/TR/2001/REC-SVG-20010904/DTD/svg10.dtd">
<svg version="1.0" xmlns="http://www.w3.org/2000/svg"
 width="700.000000pt" height="700.000000pt" viewBox="0 0 700.000000 700.000000"
 preserveAspectRatio="xMidYMid meet">
<metadata>
Created by potrace 1.14, written by Peter Selinger 2001-2017
</metadata>
<g transform="translate(0.000000,700.000000) scale(0.100000,-0.100000)"
fill="#000000" stroke="none">
<path d="M3327 6905 c-1 -2 -45 -6 -97 -9 -100 -8 -122 -10 -235 -27 -55 -8
-214 -39 -325 -64 -81 -17 -382 -115 -445 -144 -11 -5 -63 -28 -115 -51 -274
-120 -566 -303 -810 -509 -105 -88 -359 -348 -447 -457 -408 -506 -668 -1125
-738 -1759 -30 -273 -24 -655 15 -885 5 -30 12 -73 15 -95 14 -90 60 -279 102
-415 113 -367 289 -711 524 -1026 122 -163 158 -204 333 -379 158 -157 176
-173 298 -268 118 -92 164 -124 298 -207 63 -39 122 -75 130 -80 12 -8 201
-101 335 -166 119 -57 510 -179 640 -200 11 -1 56 -9 100 -17 44 -9 104 -18
134 -22 30 -4 62 -8 72 -10 123 -24 636 -24 779 0 14 2 45 7 70 10 177 22 365
64 565 127 114 35 237 79 300 107 72 32 344 167 365 181 14 9 68 43 120 76
214 132 387 271 585 469 170 170 186 187 292 322 178 228 353 524 443 748 13
33 30 71 37 85 7 14 13 32 13 41 0 8 4 19 9 25 11 12 75 210 108 334 35 137
68 307 79 410 3 30 7 61 9 67 9 27 19 254 19 403 0 194 -15 373 -45 545 -33
194 -65 322 -123 500 -38 113 -54 158 -96 260 -31 74 -147 306 -191 381 -96
164 -286 432 -358 506 -9 9 -56 61 -106 115 -369 403 -881 732 -1410 906 -98
32 -276 82 -330 93 -11 2 -31 6 -45 9 -57 12 -271 46 -316 50 -27 2 -74 7
-104 11 -50 6 -447 14 -453 9z"/>
</g>
</svg>
