<?xml version="1.0" encoding="UTF-8"?> <!-- Creator: CorelDRAW 2019 (64-Bit) --> <svg xmlns="http://www.w3.org/2000/svg" xmlns:xlink="http://www.w3.org/1999/xlink" xml:space="preserve" width="25.4mm" height="25.4mm" style="shape-rendering:geometricPrecision; text-rendering:geometricPrecision; image-rendering:optimizeQuality; fill-rule:evenodd; clip-rule:evenodd" viewBox="0 0 2540 2540"> <defs> <style type="text/css"> <![CDATA[ .fil1 {fill:black} .fil0 {fill:white;fill-rule:nonzero} ]]> </style> </defs> <g id="Слой_x0020_1"> <metadata id="CorelCorpID_0Corel-Layer"></metadata> <path class="fil0" d="M1203.87 1026.71c-8.41,-8.97 -20.53,-11.86 -36.37,-8.65 -15.84,3.21 -30.49,8.22 -43.95,15.05 -12.66,6.67 -27.78,15.48 -45.35,26.42 -28.33,18.87 -50.89,35.76 -67.66,50.65 -63.62,52.28 -121.12,110.32 -172.52,174.09 -51.56,62.99 -76.37,107.43 -74.43,133.31 2.41,20.04 16.37,34.05 41.89,42.02 22.2,7.83 47.48,14.62 75.85,20.38 28.21,4.96 48.81,9 61.81,12.12 69.74,18.74 109.88,54.13 120.42,106.2 4.63,22.88 2.37,46.33 -6.79,70.35 -14.68,37.46 -41.56,71.64 -80.65,102.54 -38.46,29.95 -81.36,54.24 -128.71,72.85 -48.93,18.94 -90.02,31.77 -123.29,38.5 -60.19,12.18 -123.01,11.34 -188.47,-2.51 -65.3,-13.06 -110.58,-45.37 -135.85,-96.91 34.57,20.1 78.71,30.46 132.42,31.09 53.72,0.63 103.94,-3.79 150.66,-13.24 69.54,-14.89 119.9,-30.83 151.09,-47.82 31.98,-17.15 58.89,-34.91 80.72,-53.29 22.47,-19.32 42.17,-40.14 59.09,-62.45 17.55,-23.26 24.09,-45.94 19.62,-68.02 -4.62,-22.88 -23.82,-40.35 -57.59,-52.4 -2.69,-1.1 -28.85,-6.07 -78.45,-14.92 -48.82,-9.01 -87.73,-22.07 -116.76,-39.19 -28.22,-17.28 -45.21,-40.12 -50.96,-68.52 -10.85,-53.64 11.4,-114.8 66.75,-183.49 55.19,-69.47 118.88,-127.52 191.06,-174.15 72.97,-46.79 137.18,-75.8 192.61,-87.01 38.81,-7.86 70.34,-6.85 94.6,3.03 24.1,9.08 38.62,25.85 43.57,50.3 0.64,3.16 1.36,6.71 2.15,10.65 2.58,24.94 -30.29,84.55 -98.6,178.85 -25.14,34.65 -46,72.12 -62.57,112.43 -15.95,39.36 -21.2,72.45 -15.78,99.27 0.48,2.37 0.96,4.73 1.44,7.1 -28.38,-13.97 -45.77,-36.73 -52.15,-68.28 -5.75,-28.4 -0.5,-65.59 15.75,-111.58 23.51,-67.17 68.65,-135.42 135.4,-204.77z"></path> <path class="fil0" d="M1225.01 1753.34c-2.21,9.48 -4.89,14.54 -8.06,15.18 -3.17,0.64 -5.55,-2.98 -7.15,-10.87 -9.26,-45.75 33.46,-193.17 128.15,-442.26 94.54,-249.87 159.89,-407.62 196.08,-473.24 7.5,-68.86 22.33,-115.79 44.47,-140.8 4.75,-5.06 12.66,-8.72 23.75,-10.96 11.88,-2.41 31.53,-1.05 58.95,4.08 28.21,4.97 43.75,14.55 46.62,28.75 1.28,6.31 -0.77,12.47 -6.15,18.49 -29.57,37.19 -45.88,99.2 -48.92,186.03 -3.04,86.84 4.15,173.25 21.55,259.24 20.75,102.55 48.83,180.21 84.24,232.99 15.55,-90.19 61.51,-244.01 137.87,-461.47 76.99,-218.4 122.22,-328.97 135.68,-331.69 0.8,-0.16 4.28,-1.28 10.46,-3.35 23.91,-8.12 36.58,-8.63 38.02,-1.53 0.64,3.15 -0.86,10.02 -4.49,20.61 -59.55,121.27 -118.75,260.53 -177.62,417.78 -58.86,157.26 -99.79,285.02 -122.77,383.28 21.11,22.83 43.39,37.2 66.85,43.13 10.46,2.81 20.05,3.34 28.76,1.57 8.71,-1.76 15.12,-4.7 19.24,-8.82 4.27,-3.32 7.28,-4.76 9.02,-4.29 1.9,1.26 3.09,3.07 3.57,5.44 0.48,2.37 0.09,4.5 -1.18,6.4 -15.5,17.09 -30.77,27.16 -45.82,30.21 -47.52,9.61 -92.46,-4.7 -134.82,-42.93 -42.52,-39.02 -78.96,-90.77 -109.32,-155.25 -30.36,-64.47 -51.69,-127.08 -63.98,-187.82 -13.73,-67.84 -19.93,-137.21 -18.61,-208.1 -61.6,131.54 -123.17,281.54 -184.71,450.01 -61.7,167.69 -101.59,294.42 -119.68,380.19z"></path> <path class="fil0" d="M1190.99 1503.12l0.77 -1.01 -0.58 -0.44 -0.67 0.28 0.48 1.17zm-52.42 12.42l0.02 -1.27 0 0 -0.02 1.27zm-50.6 -18.37l1.02 -0.75 0 0 -1.02 0.75zm-5.96 -19.78l1.27 0.08 0 -0.03 -1.27 -0.05zm9.93 -25.5l-1.04 -0.73 -0.01 0.02 1.05 0.71zm28.77 -28.76l0.77 1 0 0 -0.77 -1zm16.94 -13.14l0.78 1 0.51 -0.4 -0.02 -0.66 -1.27 0.06zm58.95 -112.22l0.82 0.96 0.01 0 -0.83 -0.96zm53.64 -23.51l0.24 -1.25 0 0 -0.24 1.25zm-5.79 57.19l-0.94 -0.86 -0.01 0.01 0.95 0.85zm-27.67 26.41l-0.8 -0.98 -0.01 0 0.81 0.98zm-56.31 46.44l-0.8 -0.98 -0.56 0.46 0.11 0.71 1.25 -0.19zm8.07 31.08l-1.18 0.49 0.64 1.55 1.32 -1.04 -0.78 -1zm55.97 -29.67l0.39 1.21 0.02 -0.01 -0.41 -1.2zm62.96 6.3l1.21 -0.37 -0.01 -0.04 -0.01 -0.04 -1.19 0.45zm-8.24 31.77l-1.03 -0.75 0 0 1.03 0.75zm-71.55 51.69l-0.55 -1.14 -1.62 0.77 1.28 1.27 0.89 -0.9zm53.9 32.75l0.32 -1.23 -0.02 0 -0.3 1.23zm40.75 -3l-1.02 -0.75 -0.04 0.05 -0.03 0.05 1.09 0.65zm-3.96 -18.64l-0.88 0.92 0.03 0.03 0.85 -0.95zm-40.19 -7.62l-0.29 -1.23 -0.06 0.01 -0.05 0.02 0.4 1.2zm-4.33 0.31l1.25 -0.2 -0.03 -0.23 -0.12 -0.2 -1.1 0.63zm4.38 -4.68l-0.37 -1.21 -0.03 0.01 0.4 1.2zm51.92 3.28l-0.87 0.92 0.03 0.03 0.03 0.02 0.81 -0.97zm4.32 23.31l-1.14 -0.57 -0.01 0.02 1.15 0.55zm-55.47 13.98l0.32 -1.23 0 0 -0.32 1.23zm-85.24 -87.14l-0.65 -1.09 -0.99 0.59 0.49 1.04 1.15 -0.54zm29.65 43.38l-0.92 0.88 0.64 0.67 0.84 -0.4 -0.56 -1.15zm65.16 -48.16l-0.96 -0.82 -0.01 0 0.97 0.82zm-148.93 65.41l0.29 -1.24 -0.05 -0.01 -0.24 1.25zm66.01 -9.43l0.44 1.19 2.03 -0.76 -1.65 -1.4 -0.82 0.97zm-32.39 -37.51l1.1 -0.63 -0.74 -1.31 -1.16 0.95 0.8 0.99zm-13.08 12.18l1.02 0.75 0.03 -0.03 0.02 -0.04 -1.07 -0.68zm-2.47 2.92l-0.75 1.03 0.43 0.3 0.52 -0.08 -0.2 -1.25zm-0.38 -2.48l1.27 0.01 0 -0.04 -1.27 0.03zm10.76 -20.18l-0.74 -1.04 -0.12 0.08 -0.09 0.11 0.95 0.85zm0.65 -0.47l0.74 1.04 0.87 -0.62 -0.46 -0.96 -1.15 0.54zm-9.9 -31.16l1.26 -0.2 -0.35 -2.25 -1.73 1.48 0.82 0.97zm-9.34 7.97l-0.83 -0.96 -0.02 0.02 -0.02 0.02 0.87 0.92zm-25.62 32.64l-1.13 -0.57 -0.01 0.01 1.14 0.56zm119.16 -126.21l-0.96 -0.82 -0.01 0.01 0.97 0.81zm-32.56 -19.69l0.86 0.93 0 0 -0.86 -0.93zm-30.27 75.85l-1.27 0.07 0.14 2.53 1.95 -1.63 -0.82 -0.97zm19.82 -15.76l0.78 1 0.02 -0.02 -0.8 -0.98zm10.48 124.63c-20.98,8.53 -38.27,12.6 -51.92,12.32l-0.05 2.54c14.15,0.29 31.81,-3.92 52.93,-12.51l-0.96 -2.35zm-51.92 12.32c-25,-0.49 -41.34,-6.59 -49.6,-17.85l-2.04 1.5c8.97,12.25 26.36,18.4 51.59,18.89l0.05 -2.54zm-49.6 -17.85c-3,-4.05 -4.66,-7.57 -5.13,-10.6l-2.51 0.38c0.55,3.6 2.47,7.52 5.6,11.73l2.04 -1.51zm-5.13 -10.6c-0.54,-3.51 -0.72,-6.28 -0.58,-8.35l-2.54 -0.17c-0.15,2.34 0.06,5.31 0.61,8.9l2.51 -0.38zm-0.58 -8.38c0.28,-7.23 3.46,-15.5 9.72,-24.85l-2.11 -1.41c-6.4,9.55 -9.84,18.28 -10.15,26.16l2.54 0.1zm9.71 -24.83c6.46,-9.35 15.95,-18.84 28.49,-28.48l-1.55 -2.01c-12.68,9.74 -22.37,19.42 -29.03,29.04l2.09 1.45zm28.49 -28.48l16.95 -13.14 -1.56 -2.01 -16.94 13.14 1.55 2.01zm17.44 -14.2c-1.75,-39.41 17.62,-76.47 58.5,-111.2l-1.64 -1.93c-41.26,35.05 -61.19,72.8 -59.4,113.24l2.54 -0.11zm58.51 -111.2c16.04,-13.8 29.92,-21.48 41.68,-23.29l-0.38 -2.51c-12.47,1.92 -26.79,9.96 -42.96,23.87l1.66 1.93zm41.68 -23.29c3.92,-0.6 7.54,-0.57 10.89,0.07l0.48 -2.5c-3.67,-0.7 -7.59,-0.72 -11.75,-0.08l0.38 2.51zm10.88 0.07c3.97,0.78 6.97,2.22 9.1,4.26 2.12,2.02 3.47,4.7 3.99,8.13l2.51 -0.38c-0.6,-3.91 -2.16,-7.13 -4.75,-9.59 -2.57,-2.45 -6.05,-4.07 -10.36,-4.92l-0.49 2.5zm13.09 12.39c1.88,12.19 -4.42,26.38 -19.56,42.69l1.86 1.73c15.3,-16.48 22.27,-31.44 20.21,-44.8l-2.51 0.38zm-19.58 42.7c-8.25,9.22 -17.43,17.98 -27.52,26.28l1.61 1.96c10.19,-8.38 19.46,-17.23 27.8,-26.54l-1.89 -1.7zm-27.53 26.28l-56.3 46.44 1.61 1.96 56.31 -46.44 -1.62 -1.96zm-56.75 47.61c0,0 0,0.01 0,0.01 0,0 0,0.01 0,0.01 0,0 0,0.01 0,0.01 0,0 0,0.01 0,0.01 0,0 0.01,0.01 0.01,0.01 0,0 0,0.01 0,0.01 0,0 0,0.01 0,0.01 0,0 0,0.01 0,0.01 0,0 0,0.01 0,0.01 0,0 0,0.01 0,0.01 0,0 0,0.01 0.01,0.01 0,0 0,0.01 0,0.01 0,0 0,0.01 0,0.01 0,0 0,0.01 0,0.01 0,0 0,0.01 0,0.01 0,0 0,0.01 0,0.01 0,0 0,0.01 0.01,0.01 0,0 0,0.01 0,0.01 0,0 0,0.01 0,0.01 0,0.01 0,0.01 0,0.01 0,0.01 0,0.01 0,0.01 0,0.01 0,0.01 0,0.01 0,0.01 0,0.01 0,0.01 0,0.01 0.01,0.01 0.01,0.02 0,0 0,0 0,0.01 0,0 0,0 0,0.01 0,0 0,0 0,0.01 0,0 0,0.01 0,0.01 0,0 0,0.01 0,0.01 0.01,0 0.01,0.01 0.01,0.01 0,0 0,0.01 0,0.01 0,0 0,0.01 0,0.01 0,0.01 0,0.01 0,0.01 0,0.01 0,0.01 0,0.01 0,0.01 0,0.01 0.01,0.02 0,0 0,0 0,0.01 0,0 0,0 0,0.01 0,0 0,0.01 0,0.01 0,0 0,0.01 0,0.01 0,0 0,0.01 0,0.01 0,0.01 0,0.01 0,0.01 0.01,0.01 0.01,0.01 0.01,0.02 0,0 0,0 0,0.01 0,0 0,0.01 0,0.01 0,0 0,0.01 0,0.01 0,0 0,0.01 0,0.01 0,0.01 0.01,0.01 0.01,0.01 0,0.01 0,0.01 0,0.02 0,0 0,0 0,0.01 0,0 0,0 0,0.01 0,0 0,0.01 0,0.01 0,0.01 0.01,0.01 0.01,0.01 0,0.01 0,0.01 0,0.01 0,0.01 0,0.01 0,0.02 0,0 0,0 0,0.01 0,0 0,0.01 0,0.01 0,0.01 0,0.01 0,0.01 0,0.01 0.01,0.01 0.01,0.02 0,0 0,0 0,0.01 0,0 0,0.01 0,0.01 0,0 0,0.01 0,0.01 0,0.01 0,0.01 0,0.01 0,0.01 0.01,0.01 0.01,0.02 0,0 0,0.01 0,0.01 0,0 0,0.01 0,0.01 0,0.01 0,0.01 0,0.01 0,0.01 0,0.01 0,0.02 0,0 0.01,0.01 0.01,0.01 0,0 0,0.01 0,0.01 0,0.01 0,0.01 0,0.02 0,0 0,0 0,0.01 0,0 0,0.01 0,0.01 0,0 0,0.01 0,0.01 0.01,0.01 0.01,0.01 0.01,0.02 0,0 0,0 0,0.01 0,0 0,0.01 0,0.01 0,0.01 0,0.01 0,0.02 0,0 0,0 0.01,0.01 0,0 0,0.01 0,0.01 0,0.01 0,0.01 0,0.01 0,0.01 0,0.01 0,0.02 0,0 0,0.01 0,0.01 0,0.01 0.01,0.01 0.01,0.02 0,0 0,0 0,0.01 0,0 0,0.01 0,0.01 0,0.01 0,0.01 0,0.01 0,0.01 0,0.01 0,0.02 0,0 0,0.01 0.01,0.01 0,0.01 0,0.01 0,0.02 0,0 0,0 0,0.01 0,0 0,0.01 0,0.01 0,0.01 0,0.01 0,0.02 0,0 0.01,0 0.01,0.01 0,0 0,0.01 0,0.01 0,0.01 0,0.01 0,0.02 0,0 0,0.01 0,0.01 0,0.01 0,0.01 0.01,0.01 0,0.01 0,0.01 0,0.02 0,0 0,0.01 0,0.01 0,0.01 0,0.01 0,0.02 0,0 0,0.01 0,0.01 0,0.01 0,0.01 0.01,0.02 0,0 0,0 0,0.01 0,0 0,0.01 0,0.01 0,0.01 0,0.01 0,0.02 0,0 0,0.01 0,0.01 0,0.01 0.01,0.01 0.01,0.02 0,0 0,0.01 0,0.01 0,0.01 0,0.01 0,0.02 0,0 0,0 0,0.01 0,0 0,0.01 0.01,0.01 0,0.01 0,0.01 0,0.02 0,0 0,0.01 0,0.01 0,0.01 0,0.01 0,0.02 0,0 0,0.01 0,0.01 0,0.01 0.01,0.01 0.01,0.02 0,0 0,0.01 0,0.01 0,0.01 0,0.01 0,0.02 0,0 0,0.01 0,0.01 0,0.01 0,0.01 0.01,0.02 0,0 0,0.01 0,0.01 0,0.01 0,0.01 0,0.02 0,0 0,0.01 0,0.01 0,0.01 0,0.01 0.01,0.02 0,0 0,0.01 0,0.01 0,0.01 0,0.01 0,0.02 0,0 0,0.01 0,0.01 0,0.01 0,0.01 0,0.02 0,0 0.01,0.01 0.01,0.01 0,0.01 0,0.01 0,0.02 0,0 0,0.01 0,0.01 0,0.01 0,0.01 0,0.02 0,0 0.01,0.01 0.01,0.01 0,0.01 0,0.01 0,0.02 0,0 0,0.01 0,0.01 0,0.01 0,0.01 0,0.02 0,0.01 0.01,0.01 0.01,0.02 0,0 0,0.01 0,0.01 0,0.01 0,0.01 0,0.02 0,0 0,0.01 0,0.01 0,0.01 0,0.01 0,0.02 0.01,0 0.01,0.01 0.01,0.01 0,0.01 0,0.02 0,0.02 0,0.01 0,0.01 0,0.02 0,0 0,0.01 0.01,0.01 0,0.01 0,0.01 0,0.02 0,0 0,0.01 0,0.01 0,0.01 0,0.01 0,0.02 0,0.01 0,0.01 0.01,0.02 0,0 0,0.01 0,0.01 0,0.01 0,0.01 0,0.02 0,0 0,0.01 0,0.02 0,0 0,0.01 0,0.01 0.01,0.01 0.01,0.01 0.01,0.02 0,0 0,0.01 0,0.01 0,0.01 0,0.02 0,0.02 0,0.01 0,0.01 0,0.02 0.01,0 0.01,0.01 0.01,0.01 0,0.01 0,0.01 0,0.02 0,0.01 0,0.01 0,0.02 0,0 0,0.01 0.01,0.01 0,0.01 0,0.01 0,0.02 0,0.01 0,0.01 0,0.02 0,0 0,0.01 0,0.01 0,0.01 0,0.02 0.01,0.02 0,0.01 0,0.01 0,0.02 0,0 0,0.01 0,0.01 0,0.01 0,0.02 0,0.02 0,0.01 0.01,0.01 0.01,0.02 0,0 0,0.01 0,0.02 0,0 0,0.01 0,0.01 0,0.01 0,0.01 0,0.02 0.01,0 0.01,0.01 0.01,0.02 0,0 0,0.01 0,0.01 0,0.01 0,0.02 0,0.02 0,0.01 0,0.01 0,0.02 0,0 0.01,0.01 0.01,0.02 0,0 0,0.01 0,0.01 0,0.01 0,0.02 0,0.02 0,0.01 0,0.01 0.01,0.02 0,0 0,0.01 0,0.02 0,0 0,0.01 0,0.01 0,0.01 0,0.01 0,0.02 0,0.01 0.01,0.01 0.01,0.02 0,0 0,0.01 0,0.02 0,0 0,0.01 0,0.01 0,0.01 0,0.02 0,0.02 0,0.01 0.01,0.01 0.01,0.02 0,0.01 0,0.01 0,0.02 0,0 0,0.01 0,0.02 0,0 0,0.01 0.01,0.01 0,0.01 0,0.02 0,0.02 0,0.01 0,0.01 0,0.02 0,0.01 0,0.01 0,0.02 0,0 0.01,0.01 0.01,0.02 0,0 0,0.01 0,0.01 0,0.01 0,0.02 0,0.02 0,0.01 0,0.01 0,0.02 0.01,0.01 0.01,0.01 0.01,0.02 0,0 0,0.01 0,0.02 0,0 0,0.01 0,0.01 0,0.01 0,0.02 0.01,0.02 0,0.01 0,0.02 0,0.02 0,0.01 0,0.01 0,0.02 0,0.01 0,0.01 0,0.02 0.01,0.01 0.01,0.01 0.01,0.02 0,0 0,0.01 0,0.02 0,0 0,0.01 0,0.01 0,0.01 0,0.02 0.01,0.02 0,0.01 0,0.02 0,0.02 0,0.01 0,0.01 0,0.02 0,0.01 0,0.01 0,0.02 0.01,0.01 0.01,0.01 0.01,0.02 0,0.01 0,0.01 0,0.02 0,0 0,0.01 0,0.02 0,0 0.01,0.01 0.01,0.02 0,0 0,0.01 0,0.01 0,0.01 0,0.02 0,0.02 0,0.01 0,0.02 0,0.02 0.01,0.01 0.01,0.02 0.01,0.02 0,0.01 0,0.02 0,0.02 0,0.01 0,0.01 0,0.02 0.01,0.01 0.01,0.01 0.01,0.02 0,0.01 0,0.01 0,0.02 0,0.01 0,0.01 0,0.02 0,0.01 0.01,0.01 0.01,0.02 0,0 0,0.01 0,0.02 0,0.01 0,0.01 0,0.02 0,0 0,0.01 0,0.02 0.01,0 0.01,0.01 0.01,0.02 0,0 0,0.01 0,0.02 0,0 0,0.01 0,0.02 0.01,0 0.01,0.01 0.01,0.02 0,0 0,0.01 0,0.02 0,0 0,0.01 0,0.02 0,0 0.01,0.01 0.01,0.02 0,0 0,0.01 0,0.02 0,0 0,0.01 0,0.02 0,0 0,0.01 0.01,0.02 0,0 0,0.01 0,0.02 0,0 0,0.01 0,0.02 0,0 0,0.01 0,0.02 0.01,0 0.01,0.01 0.01,0.02 0,0 0,0.01 0,0.02 0,0 0,0.01 0,0.02 0.01,0 0.01,0.01 0.01,0.02 0,0 0,0.01 0,0.02 0,0 0,0.01 0,0.02 0,0.01 0.01,0.01 0.01,0.02 0,0.01 0,0.01 0,0.02 0,0.01 0,0.01 0,0.02 0,0.01 0.01,0.01 0.01,0.02 0,0.01 0,0.01 0,0.02 0,0.01 0,0.01 0,0.02 0,0.01 0.01,0.01 0.01,0.02 0,0.01 0,0.02 0,0.02 0,0.01 0,0.02 0,0.02 0,0.01 0.01,0.02 0.01,0.02 0,0.01 0,0.02 0,0.03 0,0 0,0.01 0,0.02 0,0 0,0.01 0,0.02 0.01,0 0.01,0.01 0.01,0.02 0,0.01 0,0.01 0,0.02 0,0.01 0,0.01 0.01,0.02 0,0.01 0,0.01 0,0.02 0,0.01 0,0.02 0,0.02 0,0.01 0,0.02 0.01,0.02 0,0.01 0,0.02 0,0.03 0,0 0,0.01 0,0.02 0,0 0,0.01 0,0.02 0.01,0 0.01,0.01 0.01,0.02 0,0.01 0,0.01 0,0.02 0,0.01 0,0.02 0,0.02 0.01,0.01 0.01,0.02 0.01,0.02 0,0.01 0,0.02 0,0.03 0,0 0,0.01 0,0.02 0.01,0 0.01,0.01 0.01,0.02 0,0.01 0,0.01 0,0.02 0,0.01 0,0.01 0,0.02 0.01,0.01 0.01,0.02 0.01,0.03 0,0 0,0.01 0,0.02 0,0 0,0.01 0,0.02 0.01,0.01 0.01,0.01 0.01,0.02 0,0.01 0,0.02 0,0.02 0,0.01 0,0.02 0.01,0.02 0,0.01 0,0.02 0,0.03 0,0 0,0.01 0,0.02 0,0.01 0,0.01 0,0.02 0.01,0.01 0.01,0.02 0.01,0.02 0,0.01 0,0.02 0,0.02 0,0.01 0,0.02 0.01,0.03 0,0 0,0.01 0,0.02 0,0.01 0,0.01 0,0.02 0,0.01 0,0.02 0.01,0.02 0,0.01 0,0.02 0,0.03 0,0 0,0.01 0,0.02 0,0.01 0,0.01 0.01,0.02 0,0.01 0,0.02 0,0.02 0,0.01 0,0.02 0,0.03 0,0 0.01,0.01 0.01,0.02 0,0.01 0,0.01 0,0.02 0,0.01 0,0.02 0,0.02 0,0.01 0.01,0.02 0.01,0.03 0,0.01 0,0.01 0,0.02 0,0.01 0,0.02 0,0.02 0,0.01 0.01,0.02 0.01,0.03 0,0 0,0.01 0,0.02 0,0.01 0,0.02 0,0.02 0.01,0.01 0.01,0.02 0.01,0.03 0,0 0,0.01 0,0.02 0,0.01 0,0.01 0.01,0.02 0,0.01 0,0.02 0,0.03 0,0 0,0.01 0,0.02 0,0.01 0,0.01 0.01,0.02 0,0.01 0,0.02 0,0.02 0,0.01 0,0.02 0,0.03 0,0.01 0.01,0.01 0.01,0.02 0,0.01 0,0.02 0,0.03 0,0 0,0.01 0,0.02 0.01,0.01 0.01,0.02 0.01,0.02 0,0.01 0,0.02 0,0.03 0,0 0,0.01 0,0.02 0.01,0.01 0.01,0.02 0.01,0.02 0,0.01 0,0.02 0,0.03 0,0 0,0.01 0.01,0.02 0,0.01 0,0.02 0,0.02 0,0.01 0,0.02 0,0.03 0,0.01 0.01,0.01 0.01,0.02 0,0.01 0,0.02 0,0.03 0,0 0,0.01 0,0.02 0,0.01 0.01,0.02 0.01,0.02 0,0.01 0,0.02 0,0.03 0,0.01 0,0.01 0.01,0.02 0,0.01 0,0.02 0,0.03 0,0 0,0.01 0,0.02 0,0.01 0.01,0.02 0.01,0.03 0,0 0,0.01 0,0.02 0,0.01 0,0.02 0,0.02 0,0.01 0.01,0.02 0.01,0.03 0,0.01 0,0.01 0,0.02 0,0.01 0,0.02 0.01,0.03 0,0 0,0.01 0,0.02 0,0.01 0,0.02 0,0.03 0,0 0.01,0.01 0.01,0.02 0,0.01 0,0.02 0,0.02 0,0.01 0,0.02 0,0.03 0,0.01 0.01,0.02 0.01,0.02 0,0.01 0,0.02 0,0.03 0,0.01 0,0.02 0.01,0.02 0,0.01 0,0.02 0,0.03 0,0.01 0,0.02 0,0.02 0,0.01 0.01,0.02 0.01,0.03 0,0.01 0,0.02 0,0.02 0,0.01 0,0.02 0,0.03 0.01,0.01 0.01,0.01 0.01,0.02 0,0.01 0,0.02 0,0.03 0,0.01 0,0.02 0.01,0.02 0,0.01 0,0.02 0,0.03 0,0.01 0,0.02 0,0.02 0.01,0.01 0.01,0.02 0.01,0.03 0,0.01 0,0.02 0,0.02 0,0.01 0,0.02 0.01,0.03 0,0.01 0,0.02 0,0.03 0,0 0,0.01 0,0.02 0,0.01 0.01,0.02 0.01,0.03 0,0 0,0.01 0,0.02 0,0.01 0,0.02 0.01,0.03 0,0.01 0,0.01 0,0.02 0,0.01 0,0.02 0,0.03 0,0.01 0.01,0.02 0.01,0.02 0,0.01 0,0.02 0,0.03 0,0.01 0,0.02 0,0.03 0.01,0 0.01,0.01 0.01,0.02 0,0.01 0,0.02 0,0.03 0,0.01 0.01,0.01 0.01,0.02 0,0.01 0,0.02 0,0.03 0,0.01 0,0.02 0,0.03 0.01,0 0.01,0.01 0.01,0.02 0,0.01 0,0.02 0,0.03 0,0.01 0.01,0.02 0.01,0.02 0,0.01 0,0.02 0,0.03 0,0.01 0,0.02 0.01,0.03 0,0.01 0,0.01 0,0.02 0,0.01 0,0.02 0,0.03 0,0.01 0.01,0.02 0.01,0.02 0,0.01 0,0.02 0,0.03 0,0.01 0,0.02 0.01,0.03 0,0.01 0,0.02 0,0.03 0,0 0,0.01 0,0.02 0.01,0.01 0.01,0.02 0.01,0.03 0,0.01 0,0.02 0,0.02 0,0.01 0,0.02 0.01,0.03 0,0.01 0,0.02 0,0.03 0,0.01 0,0.02 0,0.02 0.01,0.01 0.01,0.02 0.01,0.03 0,0.01 0,0.02 0,0.03 0,0.01 0.01,0.02 0.01,0.03 0,0 0,0.01 0,0.02 0,0.01 0,0.02 0,0.03 0.01,0.01 0.01,0.02 0.01,0.03 0,0.01 0,0.01 0,0.02 0,0.01 0.01,0.02 0.01,0.03 0,0.01 0,0.02 0,0.03 0,0.01 0,0.02 0.01,0.02 0,0.01 0,0.02 0,0.03 0,0.01 0,0.02 0,0.03 0,0.01 0.01,0.02 0.01,0.03 0,0 0,0.01 0,0.02 0,0.01 0.01,0.02 0.01,0.03 0,0.01 0,0.02 0,0.03 0,0.01 0,0.02 0.01,0.03 0,0.01 0,0.01 0,0.02 0,0.01 0,0.02 0,0.03 0,0.01 0.01,0.02 0.01,0.03 0,0.01 0,0.02 0,0.03 0,0.01 0,0.01 0.01,0.02 0,0.01 0,0.02 0,0.03 0,0.01 0,0.02 0.01,0.03 0,0.01 0,0.02 0,0.03 0,0.01 0,0.02 0,0.03 0,0 0.01,0.01 0.01,0.02 0,0.01 0,0.02 0,0.03 0,0.01 0,0.02 0.01,0.03 0,0.01 0,0.02 0,0.03 0,0.01 0,0.02 0.01,0.03 0,0 0,0.01 0,0.02 0,0.01 0,0.02 0,0.03 0,0.01 0.01,0.02 0.01,0.03 0,0.01 0,0.02 0,0.03 0,0.01 0.01,0.02 0.01,0.03 0,0.01 0,0.02 0,0.03 0,0 0,0.01 0.01,0.02 0,0.01 0,0.02 0,0.03 0,0.01 0,0.02 0,0.03 0.01,0.01 0.01,0.02 0.01,0.03 0,0.01 0,0.02 0,0.03 0,0.01 0.01,0.02 0.01,0.03 0,0.01 0,0.01 0,0.02 0,0.01 0,0.02 0.01,0.03 0,0.01 0,0.02 0,0.03 0,0.01 0,0.02 0,0.03 0.01,0.01 0.01,0.02 0.01,0.03 0,0.01 0,0.02 0,0.03 0.01,0.01 0.01,0.02 0.01,0.03 0,0.01 0,0.02 0,0.03 0,0.01 0.01,0.02 0.01,0.02 0,0.01 0,0.02 0,0.03 0,0.01 0,0.02 0.01,0.03 0,0.01 0,0.02 0,0.03 0,0.01 0,0.02 0,0.03 0.01,0.01 0.01,0.02 0.01,0.03 0,0.01 0,0.02 0,0.03 0.01,0.01 0.01,0.02 0.01,0.03 0,0.01 0,0.02 0,0.03 0,0.01 0.01,0.02 0.01,0.03 0,0.01 0,0.02 0,0.03 0,0.01 0.01,0.02 0.01,0.03 0,0.01 0,0.02 0,0.03 0,0.01 0,0.02 0.01,0.03 0,0.01 0,0.02 0,0.03 0,0.01 0,0.02 0,0.03 0.01,0 0.01,0.02 0.01,0.03 0,0 0,0.01 0,0.03 0.01,0 0.01,0.01 0.01,0.02 0,0.01 0,0.02 0,0.03 0,0.01 0.01,0.02 0.01,0.03 0,0.01 0,0.02 0,0.03 0,0.01 0,0.02 0.01,0.03 0,0.01 0,0.02 0,0.03 0,0.01 0,0.02 0.01,0.03 0,0.01 0,0.02 0,0.03 0,0.01 0,0.02 0.01,0.03 0,0.01 0,0.02 0,0.03 0,0.01 0,0.02 0,0.04 0.01,0 0.01,0.01 0.01,0.03 0,0 0,0.02 0,0.03 0.01,0 0.01,0.02 0.01,0.03 0,0.01 0,0.02 0,0.03 0.01,0.01 0.01,0.02 0.01,0.03 0,0.01 0,0.02 0,0.03 0,0.01 0.01,0.02 0.01,0.03 0,0.01 0,0.02 0,0.03 0,0.01 0.01,0.02 0.01,0.03 0,0.01 0,0.02 0,0.03 0,0.01 0,0.02 0.01,0.03 0,0.01 0,0.02 0,0.03 0,0.01 0,0.02 0.01,0.03 0,0.01 0,0.02 0,0.03 0,0.01 0,0.02 0.01,0.03 0,0.01 0,0.02 0,0.03 0,0.01 0,0.02 0,0.03 0.01,0.02 0.01,0.03 0.01,0.04 0,0.01 0,0.02 0,0.03 0.01,0.01 0.01,0.02 0.01,0.03 0,0.01 0,0.02 0,0.03 0.01,0.01 0.01,0.02 0.01,0.03 0,0.01 0,0.02 0,0.03 0.01,0.01 0.01,0.02 0.01,0.03 0,0.01 0,0.02 0,0.03 0,0.01 0.01,0.02 0.01,0.04 0,0.01 0,0.02 0,0.03 0,0.01 0.01,0.02 0.01,0.03 0,0.01 0,0.02 0,0.03 0,0.01 0.01,0.02 0.01,0.03 0,0.01 0,0.02 0,0.03 0,0.01 0,0.02 0.01,0.03 0,0.01 0,0.03 0,0.04 0,0.01 0,0.02 0.01,0.03 0,0.01 0,0.02 0,0.03 0,0.01 0.01,0.02 0.01,0.03 0,0.01 0,0.02 0,0.03 0,0.01 0,0.02 0.01,0.03l2.51 -0.38c0,-0.01 -0.01,-0.02 -0.01,-0.03 0,-0.01 0,-0.02 0,-0.04 0,-0.01 -0.01,-0.02 -0.01,-0.03 0,-0.01 0,-0.02 0,-0.03 -0.01,-0.01 -0.01,-0.02 -0.01,-0.03 0,-0.01 0,-0.02 0,-0.03 0,-0.01 -0.01,-0.02 -0.01,-0.03 0,-0.01 0,-0.02 0,-0.03 0,-0.02 -0.01,-0.03 -0.01,-0.04 0,-0.01 0,-0.02 0,-0.03 0,-0.01 -0.01,-0.02 -0.01,-0.03 0,-0.01 0,-0.02 0,-0.03 0,-0.01 0,-0.02 -0.01,-0.03 0,-0.01 0,-0.02 0,-0.03 0,-0.01 0,-0.02 -0.01,-0.03 0,-0.02 0,-0.03 0,-0.04 0,-0.01 0,-0.02 -0.01,-0.03 0,-0.01 0,-0.02 0,-0.03 0,-0.01 0,-0.02 0,-0.03 -0.01,-0.01 -0.01,-0.02 -0.01,-0.03 0,-0.01 0,-0.02 0,-0.03 -0.01,-0.01 -0.01,-0.02 -0.01,-0.03 0,-0.01 0,-0.02 0,-0.03 -0.01,-0.01 -0.01,-0.02 -0.01,-0.03 0,-0.01 0,-0.02 0,-0.04 -0.01,0 -0.01,-0.02 -0.01,-0.03 0,-0.01 0,-0.02 0,-0.03 0,-0.01 -0.01,-0.02 -0.01,-0.03 0,-0.01 0,-0.02 0,-0.03 0,-0.01 -0.01,-0.02 -0.01,-0.03 0,-0.01 0,-0.02 0,-0.03 0,-0.01 0,-0.02 -0.01,-0.03 0,-0.01 0,-0.02 0,-0.03 0,-0.01 0,-0.02 -0.01,-0.03 0,-0.01 0,-0.02 0,-0.03 0,-0.01 0,-0.02 -0.01,-0.03 0,-0.01 0,-0.02 0,-0.03 0,-0.01 0,-0.02 0,-0.03 -0.01,-0.01 -0.01,-0.02 -0.01,-0.03 0,-0.01 0,-0.02 0,-0.03 -0.01,-0.01 -0.01,-0.02 -0.01,-0.03 0,-0.01 0,-0.02 0,-0.03 -0.01,-0.01 -0.01,-0.02 -0.01,-0.03 0,-0.01 0,-0.02 0,-0.03 0,-0.01 -0.01,-0.02 -0.01,-0.03 0,-0.01 0,-0.02 0,-0.03 0,-0.01 0,-0.02 -0.01,-0.03 0,-0.01 0,-0.02 0,-0.03 0,-0.01 0,-0.02 -0.01,-0.03 0,-0.01 0,-0.02 0,-0.03 0,-0.01 0,-0.02 0,-0.03 -0.01,-0.01 -0.01,-0.02 -0.01,-0.03 0,-0.01 0,-0.02 0,-0.03 -0.01,-0.01 -0.01,-0.02 -0.01,-0.03 0,-0.01 0,-0.02 0,-0.03 0,-0.01 -0.01,-0.02 -0.01,-0.03 0,-0.01 0,-0.02 0,-0.03 0,-0.01 0,-0.02 -0.01,-0.03 0,-0.01 0,-0.02 0,-0.03 0,-0.01 0,-0.02 -0.01,-0.03 0,-0.01 0,-0.02 0,-0.03 0,0 0,-0.01 -0.01,-0.02 0,-0.01 0,-0.02 0,-0.03 0,-0.01 0,-0.02 0,-0.03 0,-0.01 -0.01,-0.02 -0.01,-0.03 0,-0.01 0,-0.02 0,-0.03 0,-0.01 -0.01,-0.02 -0.01,-0.03 0,-0.01 0,-0.02 0,-0.03 0,-0.01 0,-0.02 -0.01,-0.03 0,-0.01 0,-0.02 0,-0.03 0,-0.01 0,-0.02 0,-0.03 -0.01,-0.01 -0.01,-0.01 -0.01,-0.02 0,-0.01 0,-0.02 0,-0.03 -0.01,-0.01 -0.01,-0.02 -0.01,-0.03 0,-0.01 0,-0.02 0,-0.03 0,-0.01 -0.01,-0.02 -0.01,-0.03 0,-0.01 0,-0.02 0,-0.03 0,-0.01 0,-0.02 -0.01,-0.03 0,-0.01 0,-0.02 0,-0.03 0,0 0,-0.01 0,-0.02 -0.01,-0.01 -0.01,-0.02 -0.01,-0.03 0,-0.01 0,-0.02 0,-0.03 0,-0.01 -0.01,-0.02 -0.01,-0.03 0,-0.01 0,-0.02 0,-0.03 0,-0.01 0,-0.02 -0.01,-0.02 0,-0.01 0,-0.02 0,-0.03 0,-0.01 0,-0.02 0,-0.03 -0.01,-0.01 -0.01,-0.02 -0.01,-0.03 0,-0.01 0,-0.02 0,-0.03 -0.01,-0.01 -0.01,-0.02 -0.01,-0.02 0,-0.01 0,-0.02 0,-0.03 0,-0.01 0,-0.02 -0.01,-0.03 0,-0.01 0,-0.02 0,-0.03 0,-0.01 0,-0.02 0,-0.03 -0.01,-0.01 -0.01,-0.02 -0.01,-0.02 0,-0.01 0,-0.02 0,-0.03 -0.01,-0.01 -0.01,-0.02 -0.01,-0.03 0,-0.01 0,-0.02 0,-0.03 0,-0.01 0,-0.02 -0.01,-0.03 0,0 0,-0.01 0,-0.02 0,-0.01 0,-0.02 0,-0.03 -0.01,-0.01 -0.01,-0.02 -0.01,-0.03 0,-0.01 0,-0.02 0,-0.02 0,-0.01 -0.01,-0.02 -0.01,-0.03 0,-0.01 0,-0.02 0,-0.03 0,-0.01 0,-0.02 -0.01,-0.03 0,-0.01 0,-0.02 0,-0.03 0,0 0,-0.01 0,-0.02 -0.01,-0.01 -0.01,-0.02 -0.01,-0.03 0,-0.01 0,-0.02 0,-0.03 0,-0.01 -0.01,-0.01 -0.01,-0.02 0,-0.01 0,-0.02 0,-0.03 0,-0.01 0,-0.02 0,-0.03 -0.01,-0.01 -0.01,-0.02 -0.01,-0.02 0,-0.01 0,-0.02 0,-0.03 0,-0.01 -0.01,-0.02 -0.01,-0.03 0,-0.01 0,-0.02 0,-0.03 0,0 0,-0.01 -0.01,-0.02 0,-0.01 0,-0.02 0,-0.03 0,-0.01 0,-0.02 0,-0.03 0,0 -0.01,-0.01 -0.01,-0.02 0,-0.01 0,-0.02 0,-0.03 0,-0.01 0,-0.02 -0.01,-0.02 0,-0.01 0,-0.02 0,-0.03 0,-0.01 0,-0.02 0,-0.03 -0.01,-0.01 -0.01,-0.02 -0.01,-0.02 0,-0.01 0,-0.02 0,-0.03 0,-0.01 0,-0.02 -0.01,-0.03 0,-0.01 0,-0.01 0,-0.02 0,-0.01 0,-0.02 0,-0.03 -0.01,-0.01 -0.01,-0.02 -0.01,-0.03 0,0 0,-0.01 0,-0.02 0,-0.01 -0.01,-0.02 -0.01,-0.03 0,-0.01 0,-0.02 0,-0.02 0,-0.01 0,-0.02 0,-0.03 -0.01,-0.01 -0.01,-0.02 -0.01,-0.03 0,-0.01 0,-0.01 0,-0.02 0,-0.01 -0.01,-0.02 -0.01,-0.03 0,-0.01 0,-0.02 0,-0.02 0,-0.01 0,-0.02 0,-0.03 -0.01,-0.01 -0.01,-0.02 -0.01,-0.03 0,0 0,-0.01 0,-0.02 0,-0.01 0,-0.02 -0.01,-0.03 0,-0.01 0,-0.01 0,-0.02 0,-0.01 0,-0.02 0,-0.03 -0.01,-0.01 -0.01,-0.02 -0.01,-0.02 0,-0.01 0,-0.02 0,-0.03 0,-0.01 -0.01,-0.02 -0.01,-0.03 0,0 0,-0.01 0,-0.02 0,-0.01 0,-0.02 0,-0.03 0,0 -0.01,-0.01 -0.01,-0.02 0,-0.01 0,-0.02 0,-0.03 0,-0.01 0,-0.01 -0.01,-0.02 0,-0.01 0,-0.02 0,-0.03 0,-0.01 0,-0.01 0,-0.02 -0.01,-0.01 -0.01,-0.02 -0.01,-0.03 0,-0.01 0,-0.01 0,-0.02 0,-0.01 0,-0.02 0,-0.03 -0.01,-0.01 -0.01,-0.01 -0.01,-0.02 0,-0.01 0,-0.02 0,-0.03 0,-0.01 -0.01,-0.01 -0.01,-0.02 0,-0.01 0,-0.02 0,-0.03 0,-0.01 0,-0.01 0,-0.02 -0.01,-0.01 -0.01,-0.02 -0.01,-0.03 0,-0.01 0,-0.01 0,-0.02 0,-0.01 0,-0.02 -0.01,-0.03 0,0 0,-0.01 0,-0.02 0,-0.01 0,-0.02 0,-0.03 0,0 -0.01,-0.01 -0.01,-0.02 0,-0.01 0,-0.02 0,-0.02 0,-0.01 0,-0.02 0,-0.03 -0.01,-0.01 -0.01,-0.02 -0.01,-0.02 0,-0.01 0,-0.02 0,-0.03 0,-0.01 0,-0.01 -0.01,-0.02 0,-0.01 0,-0.02 0,-0.03 0,0 0,-0.01 0,-0.02 0,-0.01 -0.01,-0.02 -0.01,-0.03 0,0 0,-0.01 0,-0.02 0,-0.01 0,-0.02 0,-0.02 -0.01,-0.01 -0.01,-0.02 -0.01,-0.03 0,-0.01 0,-0.01 0,-0.02 0,-0.01 0,-0.02 -0.01,-0.03 0,0 0,-0.01 0,-0.02 0,-0.01 0,-0.02 0,-0.02 0,-0.01 -0.01,-0.02 -0.01,-0.03 0,-0.01 0,-0.01 0,-0.02 0,-0.01 0,-0.02 0,-0.03 -0.01,0 -0.01,-0.01 -0.01,-0.02 0,-0.01 0,-0.01 0,-0.02 0,-0.01 0,-0.02 0,-0.03 -0.01,0 -0.01,-0.01 -0.01,-0.02 0,-0.01 0,-0.02 0,-0.02 0,-0.01 0,-0.02 -0.01,-0.03 0,-0.01 0,-0.01 0,-0.02 0,-0.01 0,-0.02 0,-0.02 0,-0.01 -0.01,-0.02 -0.01,-0.03 0,0 0,-0.01 0,-0.02 0,-0.01 0,-0.02 0,-0.02 0,-0.01 -0.01,-0.02 -0.01,-0.03 0,-0.01 0,-0.01 0,-0.02 0,-0.01 0,-0.02 0,-0.02 -0.01,-0.01 -0.01,-0.02 -0.01,-0.03 0,-0.01 0,-0.01 0,-0.02 0,-0.01 0,-0.02 -0.01,-0.02 0,-0.01 0,-0.02 0,-0.03 0,0 0,-0.01 0,-0.02 0,-0.01 0,-0.01 -0.01,-0.02 0,-0.01 0,-0.02 0,-0.02 0,-0.01 0,-0.02 0,-0.03 0,-0.01 0,-0.01 -0.01,-0.02 0,-0.01 0,-0.02 0,-0.02 0,-0.01 0,-0.02 0,-0.03 0,0 -0.01,-0.01 -0.01,-0.02 0,-0.01 0,-0.01 0,-0.02 0,-0.01 0,-0.02 0,-0.02 0,-0.01 -0.01,-0.02 -0.01,-0.03 0,0 0,-0.01 0,-0.02 0,-0.01 0,-0.01 0,-0.02 -0.01,-0.01 -0.01,-0.02 -0.01,-0.02 0,-0.01 0,-0.02 0,-0.03 0,0 0,-0.01 0,-0.02 -0.01,-0.01 -0.01,-0.01 -0.01,-0.02 0,-0.01 0,-0.02 0,-0.02 0,-0.01 0,-0.02 0,-0.03 -0.01,0 -0.01,-0.01 -0.01,-0.02 0,-0.01 0,-0.01 0,-0.02 0,-0.01 0,-0.02 0,-0.02 -0.01,-0.01 -0.01,-0.02 -0.01,-0.02 0,-0.01 0,-0.02 0,-0.03 0,0 0,-0.01 -0.01,-0.02 0,-0.01 0,-0.01 0,-0.02 0,-0.01 0,-0.01 0,-0.02 0,-0.01 0,-0.02 0,-0.02 -0.01,-0.01 -0.01,-0.02 -0.01,-0.03 0,0 0,-0.01 0,-0.02 0,0 0,-0.01 0,-0.02 -0.01,-0.01 -0.01,-0.01 -0.01,-0.02 0,-0.01 0,-0.02 0,-0.02 0,-0.01 0,-0.02 -0.01,-0.02 0,-0.01 0,-0.02 0,-0.03 0,0 0,-0.01 0,-0.02 0,0 0,-0.01 0,-0.02 -0.01,0 -0.01,-0.01 -0.01,-0.02 0,-0.01 0,-0.01 0,-0.02 0,-0.01 0,-0.02 0,-0.02 -0.01,-0.01 -0.01,-0.02 -0.01,-0.02 0,-0.01 0,-0.02 0,-0.02 0,-0.01 0,-0.02 0,-0.03 -0.01,0 -0.01,-0.01 -0.01,-0.02 0,0 0,-0.01 0,-0.02 0,-0.01 0,-0.01 0,-0.02 0,-0.01 -0.01,-0.01 -0.01,-0.02 0,-0.01 0,-0.01 0,-0.02 0,-0.01 0,-0.01 0,-0.02 0,-0.01 -0.01,-0.02 -0.01,-0.02 0,-0.01 0,-0.02 0,-0.02 0,-0.01 0,-0.02 0,-0.02 0,-0.01 -0.01,-0.02 -0.01,-0.02 0,-0.01 0,-0.02 0,-0.03 0,0 0,-0.01 0,-0.02 0,0 0,-0.01 -0.01,-0.02 0,0 0,-0.01 0,-0.02 0,0 0,-0.01 0,-0.02 0,0 0,-0.01 -0.01,-0.02 0,0 0,-0.01 0,-0.02 0,0 0,-0.01 0,-0.02 0,-0.01 0,-0.01 -0.01,-0.02 0,-0.01 0,-0.01 0,-0.02 0,-0.01 0,-0.01 0,-0.02 0,-0.01 0,-0.01 0,-0.02 0,-0.01 -0.01,-0.01 -0.01,-0.02 0,-0.01 0,-0.01 0,-0.02 0,-0.01 0,-0.01 0,-0.02 0,-0.01 -0.01,-0.01 -0.01,-0.02 0,-0.01 0,-0.01 0,-0.02 0,-0.01 0,-0.01 0,-0.02 0,-0.01 -0.01,-0.01 -0.01,-0.02 0,-0.01 0,-0.01 0,-0.02 0,-0.01 0,-0.01 0,-0.02 0,-0.01 0,-0.01 0,-0.02 -0.01,-0.01 -0.01,-0.01 -0.01,-0.02 0,-0.01 0,-0.01 0,-0.02 0,-0.01 0,-0.01 0,-0.02 -0.01,0 -0.01,-0.01 -0.01,-0.02 0,-0.01 0,-0.01 0,-0.02 0,0 0,-0.01 0,-0.02 0,0 -0.01,-0.01 -0.01,-0.02 0,0 0,-0.01 0,-0.02 0,0 0,-0.01 0,-0.02 0,0 0,-0.01 0,-0.01 -0.01,-0.01 -0.01,-0.02 -0.01,-0.02 0,-0.01 0,-0.02 0,-0.02 0,-0.01 0,-0.02 0,-0.02 0,-0.01 -0.01,-0.02 -0.01,-0.02 0,-0.01 0,-0.01 0,-0.02 0,-0.01 0,-0.01 0,-0.02 0,-0.01 -0.01,-0.01 -0.01,-0.02 0,-0.01 0,-0.01 0,-0.02 0,0 0,-0.01 0,-0.02 0,0 0,-0.01 0,-0.02 -0.01,0 -0.01,-0.01 -0.01,-0.01 0,-0.01 0,-0.02 0,-0.02 0,-0.01 0,-0.02 0,-0.02 0,-0.01 -0.01,-0.01 -0.01,-0.02 0,-0.01 0,-0.01 0,-0.02 0,-0.01 0,-0.01 0,-0.02 0,-0.01 0,-0.01 -0.01,-0.02 0,0 0,-0.01 0,-0.02 0,0 0,-0.01 0,-0.01 0,-0.01 0,-0.02 0,-0.02 0,-0.01 0,-0.01 -0.01,-0.02 0,-0.01 0,-0.01 0,-0.02 0,-0.01 0,-0.01 0,-0.02 0,0 0,-0.01 0,-0.02 -0.01,0 -0.01,-0.01 -0.01,-0.01 0,-0.01 0,-0.02 0,-0.02 0,-0.01 0,-0.01 0,-0.02 0,-0.01 -0.01,-0.01 -0.01,-0.02 0,0 0,-0.01 0,-0.02 0,0 0,-0.01 0,-0.01 0,-0.01 0,-0.02 0,-0.02 0,-0.01 -0.01,-0.01 -0.01,-0.02 0,-0.01 0,-0.01 0,-0.02 0,0 0,-0.01 0,-0.02 0,0 0,-0.01 -0.01,-0.01 0,-0.01 0,-0.02 0,-0.02 0,-0.01 0,-0.01 0,-0.02 0,-0.01 0,-0.01 0,-0.02 0,0 -0.01,-0.01 -0.01,-0.02 0,0 0,-0.01 0,-0.01 0,-0.01 0,-0.01 0,-0.02 0,-0.01 0,-0.01 0,-0.02 0,0 -0.01,-0.01 -0.01,-0.02 0,0 0,-0.01 0,-0.01 0,-0.01 0,-0.01 0,-0.02 0,-0.01 0,-0.01 0,-0.02 -0.01,0 -0.01,-0.01 -0.01,-0.01 0,-0.01 0,-0.02 0,-0.02 0,-0.01 0,-0.01 0,-0.02 0,-0.01 0,-0.01 -0.01,-0.02 0,0 0,-0.01 0,-0.01 0,-0.01 0,-0.02 0,-0.02 0,-0.01 0,-0.01 0,-0.02 0,0 0,-0.01 -0.01,-0.01 0,-0.01 0,-0.02 0,-0.02 0,-0.01 0,-0.01 0,-0.02 0,0 0,-0.01 0,-0.02 0,0 -0.01,-0.01 -0.01,-0.01 0,-0.01 0,-0.01 0,-0.02 0,0 0,-0.01 0,-0.02 0,0 0,-0.01 0,-0.01 -0.01,-0.01 -0.01,-0.01 -0.01,-0.02 0,-0.01 0,-0.01 0,-0.02 0,0 0,-0.01 0,-0.01 0,-0.01 0,-0.01 0,-0.02 0,0 -0.01,-0.01 -0.01,-0.02 0,0 0,-0.01 0,-0.01 0,-0.01 0,-0.01 0,-0.02 0,0 0,-0.01 0,-0.01 -0.01,-0.01 -0.01,-0.02 -0.01,-0.02 0,-0.01 0,-0.01 0,-0.02 0,0 0,-0.01 0,-0.01 0,-0.01 0,-0.01 0,-0.02 -0.01,-0.01 -0.01,-0.01 -0.01,-0.02 0,0 0,-0.01 0,-0.01 0,-0.01 0,-0.01 0,-0.02 0,0 0,-0.01 0,-0.01 0,-0.01 -0.01,-0.01 -0.01,-0.02 0,-0.01 0,-0.01 0,-0.02 0,0 0,-0.01 0,-0.01 0,-0.01 0,-0.01 0,-0.02 0,0 -0.01,-0.01 -0.01,-0.01 0,-0.01 0,-0.01 0,-0.02 0,0 0,-0.01 0,-0.01 0,-0.01 0,-0.02 0,-0.02 0,-0.01 -0.01,-0.01 -0.01,-0.02 0,0 0,-0.01 0,-0.01 0,-0.01 0,-0.01 0,-0.02 0,0 0,-0.01 0,-0.01 0,-0.01 0,-0.01 -0.01,-0.02 0,0 0,-0.01 0,-0.01 0,-0.01 0,-0.01 0,-0.02 0,0 0,-0.01 0,-0.01 0,-0.01 0,-0.01 0,-0.02 -0.01,0 -0.01,-0.01 -0.01,-0.01 0,-0.01 0,-0.01 0,-0.02 0,-0.01 0,-0.01 0,-0.01 0,-0.01 0,-0.01 0,-0.02 -0.01,-0.01 -0.01,-0.01 -0.01,-0.01 0,-0.01 0,-0.02 0,-0.02 0,-0.01 0,-0.01 0,-0.01 0,-0.01 0,-0.01 0,-0.02 0,-0.01 0,-0.01 -0.01,-0.01 0,-0.01 0,-0.01 0,-0.02 0,0 0,-0.01 0,-0.01 0,-0.01 0,-0.01 0,-0.02 0,0 0,-0.01 0,-0.01 -0.01,-0.01 -0.01,-0.01 -0.01,-0.02 0,0 0,-0.01 0,-0.01 0,-0.01 0,-0.01 0,-0.02 0,0 0,-0.01 0,-0.01 0,-0.01 -0.01,-0.01 -0.01,-0.02 0,0 0,-0.01 0,-0.01 0,-0.01 0,-0.01 0,-0.02 0,0 0,-0.01 0,-0.01 0,0 0,-0.01 0,-0.01 -0.01,-0.01 -0.01,-0.01 -0.01,-0.02 0,0 0,-0.01 0,-0.01 0,-0.01 0,-0.01 0,-0.02 0,0 0,-0.01 0,-0.01 0,-0.01 -0.01,-0.01 -0.01,-0.02 0,0 0,0 0,-0.01 0,0 0,-0.01 0,-0.01 0,-0.01 0,-0.01 0,-0.02 0,0 0,-0.01 0,-0.01 -0.01,-0.01 -0.01,-0.01 -0.01,-0.02 0,0 0,0 0,-0.01 0,0 0,-0.01 0,-0.01 0,-0.01 0,-0.01 0,-0.02 0,0 0,-0.01 0,-0.01 -0.01,-0.01 -0.01,-0.01 -0.01,-0.01 0,-0.01 0,-0.01 0,-0.02 0,0 0,-0.01 0,-0.01 0,-0.01 0,-0.01 0,-0.01 0,-0.01 0,-0.01 -0.01,-0.02 0,0 0,-0.01 0,-0.01 0,-0.01 0,-0.01 0,-0.02 0,0 0,0 0,-0.01 0,0 0,-0.01 0,-0.01 0,-0.01 -0.01,-0.01 -0.01,-0.01 0,-0.01 0,-0.01 0,-0.02 0,0 0,-0.01 0,-0.01 0,-0.01 0,-0.01 0,-0.01 0,-0.01 0,-0.01 0,-0.02 0,0 0,-0.01 -0.01,-0.01 0,-0.01 0,-0.01 0,-0.01 0,-0.01 0,-0.01 0,-0.02 0,0 0,-0.01 0,-0.01 0,0 0,-0.01 0,-0.01 0,-0.01 -0.01,-0.01 -0.01,-0.02 0,0 0,0 0,-0.01 0,0 0,-0.01 0,-0.01 0,-0.01 0,-0.01 0,-0.01 0,-0.01 0,-0.01 0,-0.02 0,0 -0.01,0 -0.01,-0.01 0,0 0,-0.01 0,-0.01 0,-0.01 0,-0.01 0,-0.01 0,-0.01 0,-0.01 0,-0.02 0,0 0,0 0,-0.01 0,0 0,-0.01 0,-0.01 -0.01,-0.01 -0.01,-0.01 -0.01,-0.01 0,-0.01 0,-0.01 0,-0.02 0,0 0,0 0,-0.01 0,0 0,-0.01 0,-0.01 0,0 0,-0.01 0,-0.01 -0.01,-0.01 -0.01,-0.01 -0.01,-0.01 0,-0.01 0,-0.01 0,-0.02 0,0 0,-0.01 0,-0.01 0,0 0,-0.01 0,-0.01 0,-0.01 0,-0.01 0,-0.01 0,-0.01 -0.01,-0.01 -0.01,-0.01 0,-0.01 0,-0.01 0,-0.02 0,0 0,-0.01 0,-0.01 0,0 0,-0.01 0,-0.01 0,0 0,-0.01 0,-0.01 0,-0.01 0,-0.01 0,-0.01 -0.01,-0.01 -0.01,-0.01 -0.01,-0.02 0,0 0,0 0,-0.01 0,0 0,0 0,-0.01 0,0 0,-0.01 0,-0.01 0,0 0,-0.01 0,-0.01 0,-0.01 0,-0.01 -0.01,-0.01 0,-0.01 0,-0.01 0,-0.02 0,0 0,0 0,-0.01 0,0 0,0 0,-0.01 0,0 0,-0.01 0,-0.01 0,0 0,-0.01 0,-0.01 -0.01,0 -0.01,-0.01 -0.01,-0.01 0,-0.01 0,-0.01 0,-0.01 0,-0.01 0,-0.01 0,-0.01 0,-0.01 0,-0.01 0,-0.02 0,0 0,0 0,-0.01 0,0 0,0 0,-0.01 0,0 -0.01,0 -0.01,-0.01 0,0 0,0 0,-0.01 0,0 0,-0.01 0,-0.01 0,0 0,-0.01 0,-0.01 0,0 0,-0.01 0,-0.01 0,0 0,-0.01 0,-0.01 0,-0.01 -0.01,-0.01 -0.01,-0.01 0,-0.01 0,-0.01 0,-0.01 0,-0.01 0,-0.01 0,-0.01 0,-0.01 0,-0.01 0,-0.01 0,-0.01 0,-0.01 0,-0.01 0,-0.01 0,-0.01 0,-0.02 -0.01,0 -0.01,0 -0.01,-0.01 0,0 0,0 0,-0.01 0,0 0,0 0,-0.01 0,0 0,0 0,-0.01 0,0 0,0 0,-0.01 0,0 0,0 0,-0.01 0,0 0,0 0,-0.01 -0.01,0 -0.01,0 -0.01,-0.01 0,0 0,0 0,-0.01 0,0 0,0 0,-0.01 0,0 0,0 0,-0.01 0,0 0,0 0,-0.01 0,0 0,0 0,-0.01 0,0 -0.01,0 -0.01,-0.01 0,0 0,0 0,-0.01 0,0 0,0 0,-0.01 0,0 0,0 0,-0.01l-2.51 0.39zm1.64 10.64c0.82,5.36 3,12.28 6.5,20.74l2.35 -0.97c-3.47,-8.39 -5.57,-15.09 -6.34,-20.15l-2.51 0.38zm8.46 21.25c16.37,-12.85 34.89,-22.67 55.58,-29.46l-0.79 -2.42c-20.96,6.88 -39.75,16.84 -56.36,29.88l1.57 2zm55.6 -29.47c10.11,-3.48 19.03,-5.81 26.77,-7l-0.38 -2.51c-7.94,1.22 -17.01,3.59 -27.22,7.11l0.83 2.4zm26.77 -7c9.63,-1.48 17.25,-1.1 22.96,1.02 5.66,2.1 9.51,5.92 11.63,11.53l2.38 -0.9c-2.39,-6.3 -6.78,-10.66 -13.12,-13.01 -6.28,-2.33 -14.39,-2.67 -24.23,-1.15l0.38 2.51zm34.56 12.47c0.48,1.57 0.82,3.03 1.03,4.38l2.51 -0.39c-0.23,-1.49 -0.6,-3.07 -1.11,-4.73l-2.43 0.74zm1.03 4.38c1.16,7.56 -1.73,16.3 -9.08,26.27l2.05 1.51c7.54,-10.23 10.85,-19.65 9.54,-28.17l-2.51 0.39zm-9.08 26.27c-12.88,17.5 -36.51,34.62 -71.07,51.3l1.1 2.28c34.7,-16.74 58.77,-34.07 72.02,-52.07l-2.05 -1.51zm-71.41 53.34c17.62,17.52 35.78,28.59 54.5,33.09l0.59 -2.47c-18.14,-4.36 -35.91,-15.13 -53.3,-32.42l-1.79 1.8zm54.48 33.08c12.44,3.19 22.05,4.34 28.73,3.31l-0.39 -2.51c-6.15,0.95 -15.35,-0.09 -27.71,-3.26l-0.63 2.46zm28.73 3.31c6.52,-1 11.18,-3.18 13.42,-6.88l-2.18 -1.31c-1.64,2.71 -5.33,4.72 -11.63,5.68l0.39 2.51zm13.35 -6.78c2.37,-3.22 3.38,-6.59 2.84,-10.07l-2.51 0.39c0.41,2.68 -0.32,5.38 -2.37,8.17l2.04 1.51zm2.84 -10.07c-0.5,-3.29 -2.98,-6.71 -6.98,-10.28l-1.69 1.9c3.89,3.46 5.8,6.38 6.16,8.77l2.51 -0.39zm-6.95 -10.25c-8.88,-8.45 -20.46,-11.52 -34.54,-9.35l0.38 2.51c13.47,-2.07 24.21,0.88 32.41,8.68l1.75 -1.84zm-34.54 -9.35c-1.48,0.23 -3.76,0.7 -6.81,1.42l0.57 2.47c3.05,-0.71 5.25,-1.17 6.62,-1.38l-0.38 -2.51zm-6.92 1.45c-1.37,0.44 -2.3,0.66 -2.86,0.69 -0.29,0.02 -0.34,-0.01 -0.28,0.01 0.15,0.06 0.41,0.26 0.46,0.61l-2.51 0.39c0.11,0.7 0.59,1.16 1.13,1.37 0.45,0.18 0.95,0.19 1.38,0.16 0.89,-0.06 2.06,-0.36 3.47,-0.82l-0.79 -2.41zm-2.83 0.88c-0.14,-0.26 -0.15,-0.41 -0.13,-0.5 0.01,-0.09 0.06,-0.26 0.3,-0.51 0.51,-0.54 1.6,-1.18 3.52,-1.83l-0.81 -2.41c-2.01,0.68 -3.61,1.49 -4.56,2.5 -0.5,0.53 -0.87,1.17 -0.97,1.91 -0.1,0.74 0.08,1.45 0.44,2.09l2.21 -1.25zm3.66 -2.83c6.22,-1.92 12.02,-3.29 17.41,-4.12l-0.38 -2.51c-5.54,0.85 -11.46,2.25 -17.78,4.2l0.75 2.43zm17.41 -4.12c14.99,-2.31 25.97,0.18 33.26,7.1l1.75 -1.84c-8.08,-7.67 -19.99,-10.14 -35.39,-7.77l0.38 2.51zm33.32 7.15c3.75,3.14 5.77,6.42 6.29,9.81l2.51 -0.39c-0.64,-4.18 -3.11,-7.96 -7.17,-11.36l-1.63 1.94zm6.29 9.81c0.57,3.71 -0.16,7.68 -2.3,11.96l2.28 1.14c2.32,-4.64 3.2,-9.15 2.53,-13.49l-2.51 0.39zm-2.31 11.98c-4,8.41 -11.74,13.59 -23.55,15.41l0.39 2.51c12.41,-1.91 21.01,-7.47 25.46,-16.83l-2.3 -1.09zm-23.55 15.41c-9.3,1.43 -19.44,0.74 -30.45,-2.11l-0.64 2.46c11.28,2.92 21.78,3.65 31.48,2.16l-0.39 -2.51zm-30.45 -2.11c-25.92,-6.61 -48.43,-17.22 -67.56,-31.82l-1.54 2.02c19.43,14.83 42.26,25.57 68.47,32.26l0.63 -2.46zm22.25 -114.11c-0.29,-1.89 -1.05,-3.52 -2.3,-4.83 -1.24,-1.31 -2.9,-2.24 -4.9,-2.85 -3.97,-1.21 -9.49,-1.21 -16.44,-0.14l0.38 2.51c6.83,-1.05 11.9,-0.99 15.32,0.06 1.69,0.51 2.93,1.25 3.8,2.16 0.86,0.91 1.41,2.04 1.63,3.47l2.51 -0.38zm-23.64 -7.82c-23.51,3.61 -51.79,15.29 -84.82,34.93l1.3 2.18c32.9,-19.56 60.86,-31.06 83.9,-34.6l-0.38 -2.51zm-85.32 36.56c7.63,16.15 17.59,30.72 29.88,43.72l1.84 -1.75c-12.1,-12.8 -21.91,-27.15 -29.42,-43.05l-2.3 1.08zm31.36 43.99c27.71,-13.51 49.58,-29.66 65.57,-48.48l-1.94 -1.65c-15.71,18.5 -37.28,34.46 -64.75,47.84l1.12 2.29zm65.56 -48.48c4.37,-5.06 7.59,-9.6 9.61,-13.6 2.01,-3.98 2.9,-7.56 2.43,-10.65l-2.51 0.38c0.36,2.35 -0.29,5.36 -2.19,9.12 -1.89,3.75 -4.97,8.11 -9.26,13.1l1.92 1.65zm-150.19 65.81c8.25,1.95 16.97,2.21 26.14,0.8l-0.39 -2.51c-8.88,1.36 -17.26,1.11 -25.16,-0.76l-0.59 2.47zm26.14 0.8c14.79,-2.28 28.33,-5.7 40.61,-10.27l-0.88 -2.38c-12.1,4.5 -25.47,7.89 -40.12,10.14l0.39 2.51zm40.99 -12.43c-14.17,-12.02 -24.86,-24.41 -32.11,-37.17l-2.21 1.25c7.43,13.08 18.33,25.69 32.68,37.86l1.64 -1.94zm-34.01 -37.53c-3.69,3 -6.64,5.52 -8.85,7.58 -2.18,2.03 -3.72,3.68 -4.5,4.9l2.14 1.37c0.59,-0.92 1.92,-2.38 4.1,-4.41 2.14,-2 5.05,-4.49 8.71,-7.47l-1.6 -1.97zm-13.3 12.41c-0.7,0.95 -1.24,1.65 -1.62,2.1 -0.2,0.23 -0.33,0.38 -0.41,0.46 -0.05,0.04 -0.05,0.04 -0.03,0.02 0.01,0 0.05,-0.03 0.1,-0.06 0.05,-0.02 0.16,-0.07 0.32,-0.1l0.39 2.51c0.33,-0.05 0.57,-0.21 0.65,-0.27 0.12,-0.08 0.23,-0.18 0.32,-0.26 0.18,-0.18 0.38,-0.4 0.6,-0.66 0.44,-0.52 1.02,-1.27 1.72,-2.23l-2.04 -1.51zm-0.7 2.65c0.12,0.09 0.18,0.17 0.22,0.22 0.01,0.03 0.02,0.05 0.03,0.06 0.01,0.01 0.01,0.02 0.01,0.02 0,0 0,0 -0.01,-0.02 0,-0.01 0,-0.02 -0.01,-0.04 -0.01,-0.04 -0.02,-0.1 -0.03,-0.17 -0.05,-0.32 -0.08,-0.81 -0.07,-1.51l-2.54 -0.03c-0.01,0.75 0.02,1.41 0.1,1.92 0.04,0.26 0.1,0.53 0.19,0.77 0.09,0.23 0.26,0.58 0.61,0.84l1.5 -2.06zm0.14 -1.48c-0.08,-4.79 3.2,-11.19 10.43,-19.31l-1.89 -1.69c-7.28,8.17 -11.17,15.21 -11.08,21.05l2.54 -0.05zm10.22 -19.11l0.66 -0.47 -1.47 -2.08 -0.66 0.47 1.47 2.08zm1.07 -2.05c-4.99,-10.51 -8.25,-20.78 -9.79,-30.82l-2.51 0.39c1.58,10.31 4.93,20.82 10.01,31.52l2.29 -1.09zm-11.87 -31.59l-9.35 7.98 1.65 1.93 9.35 -7.98 -1.65 -1.93zm-9.39 8.02c-11.76,11.07 -20.4,22.06 -25.88,32.99l2.27 1.13c5.31,-10.58 13.74,-21.35 25.35,-32.27l-1.74 -1.85zm-25.89 33c-5.23,10.87 -7.25,20.76 -5.88,29.6l2.51 -0.38c-1.26,-8.18 0.57,-17.54 5.66,-28.11l-2.29 -1.11zm-5.88 29.6c1.43,9.32 9.3,15.09 22.53,17.72l0.49 -2.49c-12.84,-2.56 -19.33,-7.89 -20.51,-15.61l-2.51 0.38zm127.15 -154.43c9.51,-11.19 14,-20.93 12.75,-29.08l-2.51 0.39c1.07,6.98 -2.75,15.96 -12.17,27.05l1.93 1.64zm12.75 -29.08c-0.64,-4.11 -2.21,-7.25 -4.9,-9.16 -2.69,-1.9 -6.25,-2.4 -10.46,-1.75l0.38 2.51c3.86,-0.59 6.66,-0.07 8.61,1.31 1.94,1.38 3.29,3.78 3.86,7.48l2.51 -0.39zm-15.36 -10.91c-9.64,1.48 -20.24,7.76 -31.79,18.55l1.73 1.86c11.41,-10.66 21.55,-16.53 30.44,-17.9l-0.38 -2.51zm-31.79 18.55c-22.19,20.58 -32.43,46.23 -30.67,76.85l2.54 -0.14c-1.72,-29.88 8.23,-54.79 29.86,-74.85l-1.73 -1.86zm-28.58 77.75c3.85,-3.24 10.44,-8.48 19.78,-15.73l-1.56 -2.01c-9.34,7.25 -15.97,12.52 -19.86,15.8l1.64 1.94zm19.8 -15.75c19.47,-15.84 33.88,-29.37 43.19,-40.57l-1.95 -1.62c-9.16,11.01 -23.42,24.42 -42.84,40.22l1.6 1.97z"></path> <path class="fil0" d="M1190.99 1503.12c-21.05,8.57 -38.52,12.71 -52.42,12.42 -25.12,-0.49 -41.99,-6.62 -50.6,-18.37 -3.07,-4.13 -4.85,-7.85 -5.36,-11.16 -0.55,-3.55 -0.75,-6.42 -0.6,-8.62 0.3,-7.56 3.61,-16.06 9.93,-25.5 6.57,-9.49 16.15,-19.08 28.77,-28.76l16.94 -13.14c-1.77,-39.93 17.88,-77.34 58.95,-112.22 16.1,-13.86 30.21,-21.72 42.32,-23.59 4.04,-0.62 7.81,-0.59 11.32,0.08 8.27,1.63 12.97,6.12 14.1,13.45 1.96,12.77 -4.67,27.35 -19.89,43.74 -8.3,9.27 -17.52,18.07 -27.67,26.41l-56.31 46.44c0.26,1.65 0.8,5.2 1.64,10.64 0.8,5.21 2.94,12.02 6.43,20.44 16.48,-12.94 35.14,-22.84 55.97,-29.67 10.16,-3.5 19.15,-5.85 26.99,-7.06 19.47,-2.99 31.46,1.46 35.97,13.36 0.49,1.62 0.84,3.13 1.06,4.55 1.24,8.05 -1.86,17.12 -9.3,27.22 -13.07,17.75 -36.92,34.98 -71.55,51.69 17.51,17.4 35.47,28.32 53.9,32.75 12.4,3.18 21.81,4.28 28.22,3.29 6.42,-0.99 10.59,-3.08 12.53,-6.29 2.21,-3 3.08,-6.04 2.61,-9.11 -0.44,-2.84 -2.63,-6.02 -6.57,-9.53 -8.55,-8.13 -19.7,-11.13 -33.48,-9.01 -1.42,0.22 -3.66,0.68 -6.71,1.39 -2.78,0.91 -4.22,1.01 -4.33,0.31 -1.01,-1.79 0.46,-3.34 4.38,-4.68 6.27,-1.93 12.14,-3.31 17.6,-4.15 15.2,-2.34 26.64,0.14 34.32,7.43 3.91,3.27 6.16,6.8 6.74,10.59 0.62,4.02 -0.19,8.26 -2.42,12.72 -4.23,8.88 -12.39,14.25 -24.51,16.12 -9.5,1.46 -19.82,0.74 -30.96,-2.14 -26.06,-6.65 -48.73,-17.33 -68.01,-32.04zm89.32 -83.11c-1.02,-6.63 -8.41,-8.88 -22.19,-6.76 -23.27,3.58 -51.39,15.17 -84.36,34.77 7.57,16.03 17.46,30.49 29.65,43.38 27.59,-13.44 49.31,-29.49 65.16,-48.16 8.66,-10.05 12.58,-17.79 11.74,-23.23zm-160.67 88.64c8.07,1.9 16.62,2.16 25.64,0.77 14.73,-2.26 28.18,-5.66 40.37,-10.2 -14.26,-12.09 -25.06,-24.6 -32.39,-37.51 -7.35,5.97 -11.71,10.03 -13.08,12.18 -1.41,1.91 -2.23,2.88 -2.47,2.92 -0.27,-0.2 -0.4,-1.03 -0.38,-2.48 -0.09,-5.32 3.5,-12.04 10.76,-20.18l0.65 -0.47c-5.03,-10.6 -8.33,-20.99 -9.9,-31.16l-9.34 7.97c-11.68,11 -20.22,21.88 -25.62,32.64 -5.15,10.72 -7.08,20.34 -5.77,28.85 1.31,8.52 8.49,14.07 21.53,16.67zm103.4 -171.73c9.47,-11.14 13.62,-20.5 12.46,-28.07 -1.2,-7.8 -5.84,-11.09 -13.91,-9.84 -9.26,1.42 -19.63,7.5 -31.11,18.22 -21.92,20.32 -32.01,45.6 -30.27,75.85 3.87,-3.26 10.48,-8.51 19.82,-15.76 19.44,-15.83 33.78,-29.29 43.01,-40.4z"></path> <circle class="fil1" cx="1270" cy="1270" r="1236.14"></circle> <path class="fil0" d="M1223.39 1026.71c-8.41,-8.97 -20.54,-11.86 -36.37,-8.65 -15.84,3.21 -30.49,8.22 -43.95,15.05 -12.67,6.67 -27.78,15.48 -45.36,26.42 -28.33,18.87 -50.88,35.76 -67.65,50.65 -63.62,52.28 -121.13,110.32 -172.53,174.09 -51.55,62.99 -76.36,107.43 -74.42,133.31 2.4,20.04 16.37,34.05 41.89,42.02 22.19,7.83 47.48,14.62 75.85,20.38 28.21,4.96 48.81,9 61.81,12.12 69.74,18.74 109.88,54.13 120.42,106.2 4.63,22.88 2.36,46.33 -6.79,70.35 -14.68,37.46 -41.56,71.64 -80.65,102.54 -38.46,29.95 -81.36,54.24 -128.71,72.85 -48.93,18.94 -90.03,31.77 -123.29,38.5 -60.19,12.18 -123.02,11.34 -188.47,-2.51 -65.3,-13.06 -110.59,-45.37 -135.86,-96.91 34.57,20.1 78.72,30.46 132.43,31.09 53.71,0.63 103.93,-3.79 150.66,-13.24 69.54,-14.89 119.9,-30.83 151.08,-47.82 31.98,-17.15 58.89,-34.91 80.73,-53.29 22.47,-19.32 42.17,-40.14 59.09,-62.45 17.55,-23.26 24.09,-45.94 19.62,-68.02 -4.63,-22.88 -23.83,-40.35 -57.59,-52.4 -2.7,-1.1 -28.85,-6.07 -78.46,-14.92 -48.81,-9.01 -87.73,-22.07 -116.75,-39.19 -28.23,-17.28 -45.21,-40.12 -50.96,-68.52 -10.86,-53.64 11.39,-114.8 66.74,-183.49 55.2,-69.47 118.88,-127.52 191.06,-174.15 72.98,-46.79 137.18,-75.8 192.62,-87.01 38.81,-7.86 70.34,-6.85 94.6,3.03 24.09,9.08 38.62,25.85 43.57,50.3 0.63,3.16 1.35,6.71 2.15,10.65 2.57,24.94 -30.29,84.55 -98.6,178.85 -25.14,34.65 -46,72.12 -62.58,112.43 -15.94,39.36 -21.2,72.45 -15.77,99.27 0.48,2.37 0.96,4.73 1.44,7.1 -28.39,-13.97 -45.77,-36.73 -52.16,-68.28 -5.74,-28.4 -0.49,-65.59 15.76,-111.58 23.51,-67.17 68.64,-135.42 135.4,-204.77z"></path> <path class="fil0" d="M1244.52 1753.34c-2.2,9.48 -4.89,14.54 -8.06,15.18 -3.16,0.64 -5.55,-2.98 -7.14,-10.87 -9.26,-45.75 33.46,-193.17 128.15,-442.26 94.53,-249.87 159.89,-407.62 196.08,-473.24 7.5,-68.86 22.32,-115.79 44.47,-140.8 4.74,-5.06 12.66,-8.72 23.75,-10.96 11.88,-2.41 31.52,-1.05 58.94,4.08 28.21,4.97 43.76,14.55 46.63,28.75 1.28,6.31 -0.77,12.47 -6.15,18.49 -29.57,37.19 -45.88,99.2 -48.92,186.03 -3.04,86.84 4.14,173.25 21.54,259.24 20.75,102.55 48.84,180.21 84.25,232.99 15.55,-90.19 61.5,-244.01 137.86,-461.47 77,-218.4 122.23,-328.97 135.69,-331.69 0.79,-0.16 4.28,-1.28 10.45,-3.35 23.91,-8.12 36.59,-8.63 38.03,-1.53 0.63,3.15 -0.86,10.02 -4.49,20.61 -59.55,121.27 -118.76,260.53 -177.62,417.78 -58.87,157.26 -99.79,285.02 -122.77,383.28 21.1,22.83 43.39,37.2 66.84,43.13 10.47,2.81 20.05,3.34 28.76,1.57 8.72,-1.76 15.13,-4.7 19.24,-8.82 4.27,-3.32 7.28,-4.76 9.03,-4.29 1.9,1.26 3.09,3.07 3.57,5.44 0.48,2.37 0.09,4.5 -1.18,6.4 -15.5,17.09 -30.78,27.16 -45.82,30.21 -47.52,9.61 -92.46,-4.7 -134.82,-42.93 -42.53,-39.02 -78.97,-90.77 -109.33,-155.25 -30.36,-64.47 -51.68,-127.08 -63.97,-187.82 -13.73,-67.84 -19.94,-137.21 -18.62,-208.1 -61.59,131.54 -123.16,281.54 -184.7,450.01 -61.7,167.69 -101.6,294.42 -119.69,380.19z"></path> <path class="fil0" d="M1210.51 1503.12l0.77 -1.01 -0.58 -0.44 -0.67 0.28 0.48 1.17zm-52.43 12.42l0.03 -1.27 0 0 -0.03 1.27zm-50.59 -18.37l1.02 -0.75 0 0 -1.02 0.75zm-5.96 -19.78l1.26 0.08 0 -0.03 -1.26 -0.05zm9.93 -25.5l-1.04 -0.73 -0.01 0.02 1.05 0.71zm28.76 -28.76l0.77 1 0.01 0 -0.78 -1zm16.94 -13.14l0.78 1 0.52 -0.4 -0.03 -0.66 -1.27 0.06zm58.96 -112.22l0.82 0.96 0.01 0 -0.83 -0.96zm53.63 -23.51l0.25 -1.25 -0.01 0 -0.24 1.25zm-5.79 57.19l-0.93 -0.86 -0.01 0.01 0.94 0.85zm-27.66 26.41l-0.81 -0.98 0 0 0.81 0.98zm-56.31 46.44l-0.81 -0.98 -0.55 0.46 0.11 0.71 1.25 -0.19zm8.06 31.08l-1.17 0.49 0.64 1.55 1.32 -1.04 -0.79 -1zm55.97 -29.67l0.4 1.21 0.02 -0.01 -0.42 -1.2zm62.96 6.3l1.22 -0.37 -0.01 -0.04 -0.02 -0.04 -1.19 0.45zm-8.24 31.77l-1.02 -0.75 0 0 1.02 0.75zm-71.54 51.69l-0.55 -1.14 -1.62 0.77 1.27 1.27 0.9 -0.9zm53.9 32.75l0.32 -1.23 -0.02 0 -0.3 1.23zm40.75 -3l-1.03 -0.75 -0.03 0.05 -0.03 0.05 1.09 0.65zm-3.97 -18.64l-0.87 0.92 0.03 0.03 0.84 -0.95zm-40.19 -7.62l-0.28 -1.23 -0.06 0.01 -0.05 0.02 0.39 1.2zm-4.33 0.31l1.26 -0.2 -0.04 -0.23 -0.11 -0.2 -1.11 0.63zm4.39 -4.68l-0.37 -1.21 -0.04 0.01 0.41 1.2zm51.92 3.28l-0.87 0.92 0.03 0.03 0.03 0.02 0.81 -0.97zm4.32 23.31l-1.14 -0.57 -0.01 0.02 1.15 0.55zm-55.47 13.98l0.32 -1.23 -0.01 0 -0.31 1.23zm-85.24 -87.14l-0.65 -1.09 -0.99 0.59 0.49 1.04 1.15 -0.54zm29.65 43.38l-0.93 0.88 0.64 0.67 0.84 -0.4 -0.55 -1.15zm65.16 -48.16l-0.97 -0.82 0 0 0.97 0.82zm-148.94 65.41l0.3 -1.24 -0.05 -0.01 -0.25 1.25zm66.02 -9.43l0.44 1.19 2.03 -0.76 -1.65 -1.4 -0.82 0.97zm-32.39 -37.51l1.1 -0.63 -0.74 -1.31 -1.17 0.95 0.81 0.99zm-13.08 12.18l1.02 0.75 0.03 -0.03 0.02 -0.04 -1.07 -0.68zm-2.47 2.92l-0.75 1.03 0.43 0.3 0.51 -0.08 -0.19 -1.25zm-0.38 -2.48l1.27 0.01 0 -0.04 -1.27 0.03zm10.75 -20.18l-0.73 -1.04 -0.12 0.08 -0.1 0.11 0.95 0.85zm0.66 -0.47l0.73 1.04 0.88 -0.62 -0.46 -0.96 -1.15 0.54zm-9.9 -31.16l1.26 -0.2 -0.35 -2.25 -1.73 1.48 0.82 0.97zm-9.35 7.97l-0.82 -0.96 -0.03 0.02 -0.02 0.02 0.87 0.92zm-25.61 32.64l-1.14 -0.57 -0.01 0.01 1.15 0.56zm119.16 -126.21l-0.97 -0.82 -0.01 0.01 0.98 0.81zm-32.57 -19.69l0.87 0.93 0 0 -0.87 -0.93zm-30.27 75.85l-1.26 0.07 0.14 2.53 1.94 -1.63 -0.82 -0.97zm19.82 -15.76l0.78 1 0.03 -0.02 -0.81 -0.98zm10.49 124.63c-20.98,8.53 -38.27,12.6 -51.92,12.32l-0.05 2.54c14.15,0.29 31.81,-3.92 52.93,-12.51l-0.96 -2.35zm-51.92 12.32c-25,-0.49 -41.34,-6.59 -49.6,-17.85l-2.05 1.5c8.98,12.25 26.36,18.4 51.6,18.89l0.05 -2.54zm-49.6 -17.85c-3.01,-4.05 -4.67,-7.57 -5.13,-10.6l-2.51 0.38c0.55,3.6 2.47,7.52 5.6,11.73l2.04 -1.51zm-5.13 -10.6c-0.54,-3.51 -0.73,-6.28 -0.59,-8.35l-2.53 -0.17c-0.16,2.34 0.06,5.31 0.61,8.9l2.51 -0.38zm-0.59 -8.38c0.29,-7.23 3.47,-15.5 9.73,-24.85l-2.11 -1.41c-6.4,9.55 -9.84,18.28 -10.15,26.16l2.53 0.1zm9.72 -24.83c6.46,-9.35 15.94,-18.84 28.48,-28.48l-1.54 -2.01c-12.68,9.74 -22.37,19.42 -29.03,29.04l2.09 1.45zm28.49 -28.48l16.94 -13.14 -1.56 -2.01 -16.94 13.14 1.56 2.01zm17.43 -14.2c-1.74,-39.41 17.63,-76.47 58.51,-111.2l-1.65 -1.93c-41.25,35.05 -61.18,72.8 -59.4,113.24l2.54 -0.11zm58.52 -111.2c16.03,-13.8 29.92,-21.48 41.68,-23.29l-0.39 -2.51c-12.46,1.92 -26.79,9.96 -42.95,23.87l1.66 1.93zm41.68 -23.29c3.91,-0.6 7.54,-0.57 10.88,0.07l0.48 -2.5c-3.67,-0.7 -7.59,-0.72 -11.75,-0.08l0.39 2.51zm10.88 0.07c3.97,0.78 6.97,2.22 9.1,4.26 2.12,2.02 3.46,4.7 3.99,8.13l2.51 -0.38c-0.6,-3.91 -2.17,-7.13 -4.75,-9.59 -2.57,-2.45 -6.06,-4.07 -10.36,-4.92l-0.49 2.5zm13.09 12.39c1.87,12.19 -4.42,26.38 -19.57,42.69l1.86 1.73c15.31,-16.48 22.28,-31.44 20.22,-44.8l-2.51 0.38zm-19.58 42.7c-8.26,9.22 -17.43,17.98 -27.53,26.28l1.62 1.96c10.19,-8.38 19.46,-17.23 27.8,-26.54l-1.89 -1.7zm-27.53 26.28l-56.31 46.44 1.62 1.96 56.31 -46.44 -1.62 -1.96zm-56.75 47.61c0,0 0,0.01 0,0.01 0,0 0,0.01 0,0.01 0,0 0,0.01 0,0.01 0,0 0,0.01 0,0.01 0,0 0,0.01 0,0.01 0,0 0,0.01 0,0.01 0.01,0 0.01,0.01 0.01,0.01 0,0 0,0.01 0,0.01 0,0 0,0.01 0,0.01 0,0 0,0.01 0,0.01 0,0 0,0.01 0,0.01 0,0 0,0.01 0,0.01 0,0 0,0.01 0,0.01 0.01,0 0.01,0.01 0.01,0.01 0,0 0,0.01 0,0.01 0,0 0,0.01 0,0.01 0,0 0,0.01 0,0.01 0,0 0,0.01 0,0.01 0,0 0,0.01 0,0.01 0.01,0.01 0.01,0.01 0.01,0.01 0,0.01 0,0.01 0,0.01 0,0.01 0,0.01 0,0.01 0,0.01 0,0.01 0,0.01 0,0.01 0,0.01 0,0.02 0,0 0,0 0.01,0.01 0,0 0,0 0,0.01 0,0 0,0 0,0.01 0,0 0,0.01 0,0.01 0,0 0,0.01 0,0.01 0,0 0,0.01 0,0.01 0,0 0,0.01 0,0.01 0.01,0 0.01,0.01 0.01,0.01 0,0.01 0,0.01 0,0.01 0,0.01 0,0.01 0,0.01 0,0.01 0,0.01 0,0.02 0,0 0,0 0,0.01 0,0 0,0 0.01,0.01 0,0 0,0.01 0,0.01 0,0 0,0.01 0,0.01 0,0 0,0.01 0,0.01 0,0.01 0,0.01 0,0.01 0,0.01 0,0.01 0,0.02 0,0 0.01,0 0.01,0.01 0,0 0,0.01 0,0.01 0,0 0,0.01 0,0.01 0,0 0,0.01 0,0.01 0,0.01 0,0.01 0,0.01 0,0.01 0,0.01 0,0.02 0,0 0.01,0 0.01,0.01 0,0 0,0 0,0.01 0,0 0,0.01 0,0.01 0,0.01 0,0.01 0,0.01 0,0.01 0,0.01 0,0.01 0,0.01 0.01,0.01 0.01,0.02 0,0 0,0 0,0.01 0,0 0,0.01 0,0.01 0,0.01 0,0.01 0,0.01 0,0.01 0,0.01 0,0.02 0,0 0,0 0.01,0.01 0,0 0,0.01 0,0.01 0,0 0,0.01 0,0.01 0,0.01 0,0.01 0,0.01 0,0.01 0,0.01 0,0.02 0,0 0,0.01 0,0.01 0,0 0.01,0.01 0.01,0.01 0,0.01 0,0.01 0,0.01 0,0.01 0,0.01 0,0.02 0,0 0,0.01 0,0.01 0,0 0,0.01 0,0.01 0,0.01 0.01,0.01 0.01,0.02 0,0 0,0 0,0.01 0,0 0,0.01 0,0.01 0,0 0,0.01 0,0.01 0,0.01 0,0.01 0,0.02 0.01,0 0.01,0 0.01,0.01 0,0 0,0.01 0,0.01 0,0.01 0,0.01 0,0.02 0,0 0,0 0,0.01 0,0 0,0.01 0,0.01 0,0.01 0.01,0.01 0.01,0.01 0,0.01 0,0.01 0,0.02 0,0 0,0.01 0,0.01 0,0.01 0,0.01 0,0.02 0,0 0,0 0,0.01 0,0 0.01,0.01 0.01,0.01 0,0.01 0,0.01 0,0.01 0,0.01 0,0.01 0,0.02 0,0 0,0.01 0,0.01 0,0.01 0,0.01 0.01,0.02 0,0 0,0 0,0.01 0,0 0,0.01 0,0.01 0,0.01 0,0.01 0,0.02 0,0 0,0 0,0.01 0,0 0,0.01 0,0.01 0.01,0.01 0.01,0.01 0.01,0.02 0,0 0,0.01 0,0.01 0,0.01 0,0.01 0,0.01 0,0.01 0,0.01 0,0.02 0,0 0.01,0.01 0.01,0.01 0,0.01 0,0.01 0,0.02 0,0 0,0.01 0,0.01 0,0.01 0,0.01 0,0.02 0,0 0,0 0,0.01 0.01,0 0.01,0.01 0.01,0.01 0,0.01 0,0.01 0,0.02 0,0 0,0.01 0,0.01 0,0.01 0,0.01 0,0.02 0,0 0,0.01 0.01,0.01 0,0.01 0,0.01 0,0.02 0,0 0,0 0,0.01 0,0 0,0.01 0,0.01 0,0.01 0,0.01 0,0.02 0.01,0 0.01,0.01 0.01,0.01 0,0.01 0,0.01 0,0.02 0,0 0,0.01 0,0.01 0,0.01 0,0.01 0,0.02 0,0 0.01,0.01 0.01,0.01 0,0.01 0,0.01 0,0.02 0,0 0,0.01 0,0.01 0,0.01 0,0.01 0,0.02 0,0 0,0.01 0,0.01 0.01,0.01 0.01,0.01 0.01,0.02 0,0 0,0.01 0,0.01 0,0.01 0,0.01 0,0.02 0,0 0,0.01 0,0.01 0,0.01 0.01,0.01 0.01,0.02 0,0 0,0.01 0,0.01 0,0.01 0,0.01 0,0.02 0,0 0,0.01 0,0.01 0,0.01 0.01,0.01 0.01,0.02 0,0 0,0.01 0,0.01 0,0.01 0,0.01 0,0.02 0,0 0,0.01 0,0.01 0,0.01 0,0.01 0,0.02 0.01,0 0.01,0.01 0.01,0.01 0,0.01 0,0.01 0,0.02 0,0.01 0,0.01 0,0.02 0,0 0,0.01 0,0.01 0.01,0.01 0.01,0.01 0.01,0.02 0,0 0,0.01 0,0.01 0,0.01 0,0.01 0,0.02 0,0 0,0.01 0,0.01 0.01,0.01 0.01,0.02 0.01,0.02 0,0.01 0,0.01 0,0.02 0,0 0,0.01 0,0.01 0,0.01 0,0.01 0,0.02 0,0 0.01,0.01 0.01,0.01 0,0.01 0,0.01 0,0.02 0,0.01 0,0.01 0,0.02 0,0 0,0.01 0,0.01 0.01,0.01 0.01,0.01 0.01,0.02 0,0 0,0.01 0,0.02 0,0 0,0.01 0,0.01 0,0.01 0,0.01 0,0.02 0.01,0 0.01,0.01 0.01,0.01 0,0.01 0,0.02 0,0.02 0,0.01 0,0.01 0,0.02 0,0 0,0.01 0,0.01 0,0.01 0.01,0.01 0.01,0.02 0,0.01 0,0.01 0,0.02 0,0 0,0.01 0,0.01 0,0.01 0,0.01 0,0.02 0.01,0.01 0.01,0.01 0.01,0.02 0,0 0,0.01 0,0.01 0,0.01 0,0.02 0,0.02 0,0.01 0,0.01 0.01,0.02 0,0 0,0.01 0,0.01 0,0.01 0,0.02 0,0.02 0,0.01 0,0.01 0,0.02 0,0 0,0.01 0,0.02 0.01,0 0.01,0.01 0.01,0.01 0,0.01 0,0.01 0,0.02 0,0 0,0.01 0,0.02 0,0 0.01,0.01 0.01,0.01 0,0.01 0,0.02 0,0.02 0,0.01 0,0.01 0,0.02 0,0 0,0.01 0,0.02 0.01,0 0.01,0.01 0.01,0.01 0,0.01 0,0.02 0,0.02 0,0.01 0,0.01 0,0.02 0,0 0,0.01 0,0.02 0.01,0 0.01,0.01 0.01,0.01 0,0.01 0,0.01 0,0.02 0,0.01 0,0.01 0,0.02 0,0 0,0.01 0.01,0.02 0,0 0,0.01 0,0.01 0,0.01 0,0.02 0,0.02 0,0.01 0,0.01 0,0.02 0,0.01 0.01,0.01 0.01,0.02 0,0 0,0.01 0,0.02 0,0 0,0.01 0,0.01 0,0.01 0,0.02 0,0.02 0.01,0.01 0.01,0.01 0.01,0.02 0,0.01 0,0.01 0,0.02 0,0 0,0.01 0,0.02 0,0 0,0.01 0.01,0.01 0,0.01 0,0.02 0,0.02 0,0.01 0,0.01 0,0.02 0,0.01 0,0.01 0,0.02 0.01,0 0.01,0.01 0.01,0.02 0,0 0,0.01 0,0.01 0,0.01 0,0.02 0,0.02 0,0.01 0,0.02 0.01,0.02 0,0.01 0,0.01 0,0.02 0,0.01 0,0.01 0,0.02 0,0.01 0,0.01 0,0.02 0.01,0 0.01,0.01 0.01,0.02 0,0 0,0.01 0,0.01 0,0.01 0,0.02 0,0.02 0,0.01 0.01,0.02 0.01,0.02 0,0.01 0,0.01 0,0.02 0,0.01 0,0.01 0,0.02 0,0.01 0,0.01 0,0.02 0,0.01 0.01,0.01 0.01,0.02 0,0 0,0.01 0,0.02 0,0 0,0.01 0,0.02 0,0 0.01,0.01 0.01,0.01 0,0.01 0,0.02 0,0.02 0,0.01 0,0.02 0,0.02 0,0.01 0,0.02 0.01,0.02 0,0.01 0,0.02 0,0.02 0,0.01 0,0.01 0,0.02 0,0.01 0,0.01 0,0.02 0,0.01 0.01,0.01 0.01,0.02 0,0.01 0,0.01 0,0.02 0,0.01 0,0.01 0,0.02 0,0 0,0.01 0.01,0.02 0,0.01 0,0.01 0,0.02 0,0 0,0.01 0,0.02 0,0 0,0.01 0.01,0.02 0,0 0,0.01 0,0.02 0,0 0,0.01 0,0.02 0,0 0,0.01 0,0.02 0,0 0.01,0.01 0.01,0.02 0,0 0,0.01 0,0.02 0,0 0,0.01 0,0.02 0,0 0.01,0.01 0.01,0.02 0,0 0,0.01 0,0.02 0,0 0,0.01 0,0.02 0,0 0,0.01 0.01,0.02 0,0 0,0.01 0,0.02 0,0 0,0.01 0,0.02 0,0 0,0.01 0,0.02 0.01,0 0.01,0.01 0.01,0.02 0,0 0,0.01 0,0.02 0,0 0,0.01 0,0.02 0.01,0 0.01,0.01 0.01,0.02 0,0 0,0.01 0,0.02 0,0.01 0,0.01 0,0.02 0,0.01 0.01,0.01 0.01,0.02 0,0.01 0,0.01 0,0.02 0,0.01 0,0.01 0,0.02 0,0.01 0,0.01 0.01,0.02 0,0.01 0,0.01 0,0.02 0,0.01 0,0.01 0,0.02 0,0.01 0,0.02 0.01,0.02 0,0.01 0,0.02 0,0.02 0,0.01 0,0.02 0,0.02 0,0.01 0,0.02 0.01,0.03 0,0 0,0.01 0,0.02 0,0 0,0.01 0,0.02 0,0 0,0.01 0,0.02 0.01,0.01 0.01,0.01 0.01,0.02 0,0.01 0,0.01 0,0.02 0,0.01 0,0.01 0,0.02 0.01,0.01 0.01,0.02 0.01,0.02 0,0.01 0,0.02 0,0.02 0,0.01 0,0.02 0,0.03 0.01,0 0.01,0.01 0.01,0.02 0,0 0,0.01 0,0.02 0,0 0,0.01 0,0.02 0.01,0.01 0.01,0.01 0.01,0.02 0,0.01 0,0.02 0,0.02 0,0.01 0,0.02 0,0.02 0.01,0.01 0.01,0.02 0.01,0.03 0,0 0,0.01 0,0.02 0,0 0,0.01 0,0.02 0.01,0.01 0.01,0.01 0.01,0.02 0,0.01 0,0.01 0,0.02 0,0.01 0,0.02 0,0.03 0.01,0 0.01,0.01 0.01,0.02 0,0 0,0.01 0,0.02 0,0.01 0,0.01 0,0.02 0.01,0.01 0.01,0.02 0.01,0.02 0,0.01 0,0.02 0,0.02 0,0.01 0,0.02 0,0.03 0.01,0 0.01,0.01 0.01,0.02 0,0.01 0,0.01 0,0.02 0,0.01 0,0.02 0,0.02 0.01,0.01 0.01,0.02 0.01,0.02 0,0.01 0,0.02 0,0.03 0,0 0,0.01 0.01,0.02 0,0.01 0,0.01 0,0.02 0,0.01 0,0.02 0,0.02 0,0.01 0,0.02 0.01,0.03 0,0 0,0.01 0,0.02 0,0.01 0,0.01 0,0.02 0,0.01 0,0.02 0.01,0.02 0,0.01 0,0.02 0,0.03 0,0 0,0.01 0,0.02 0,0.01 0.01,0.01 0.01,0.02 0,0.01 0,0.02 0,0.02 0,0.01 0,0.02 0,0.03 0,0.01 0.01,0.01 0.01,0.02 0,0.01 0,0.02 0,0.02 0,0.01 0,0.02 0,0.03 0,0 0.01,0.01 0.01,0.02 0,0.01 0,0.02 0,0.02 0,0.01 0,0.02 0,0.03 0.01,0 0.01,0.01 0.01,0.02 0,0.01 0,0.01 0,0.02 0,0.01 0,0.02 0.01,0.03 0,0 0,0.01 0,0.02 0,0.01 0,0.01 0,0.02 0,0.01 0,0.02 0.01,0.02 0,0.01 0,0.02 0,0.03 0,0.01 0,0.01 0,0.02 0,0.01 0.01,0.02 0.01,0.03 0,0 0,0.01 0,0.02 0,0.01 0,0.02 0,0.02 0.01,0.01 0.01,0.02 0.01,0.03 0,0 0,0.01 0,0.02 0,0.01 0,0.02 0,0.02 0.01,0.01 0.01,0.02 0.01,0.03 0,0 0,0.01 0,0.02 0,0.01 0,0.02 0.01,0.02 0,0.01 0,0.02 0,0.03 0,0.01 0,0.01 0,0.02 0,0.01 0.01,0.02 0.01,0.03 0,0 0,0.01 0,0.02 0,0.01 0,0.02 0,0.02 0.01,0.01 0.01,0.02 0.01,0.03 0,0.01 0,0.01 0,0.02 0,0.01 0,0.02 0.01,0.03 0,0 0,0.01 0,0.02 0,0.01 0,0.02 0,0.03 0,0 0.01,0.01 0.01,0.02 0,0.01 0,0.02 0,0.02 0,0.01 0,0.02 0,0.03 0,0.01 0.01,0.01 0.01,0.02 0,0.01 0,0.02 0,0.03 0,0 0,0.01 0.01,0.02 0,0.01 0,0.02 0,0.03 0,0 0,0.01 0,0.02 0,0.01 0.01,0.02 0.01,0.02 0,0.01 0,0.02 0,0.03 0,0.01 0,0.02 0,0.02 0.01,0.01 0.01,0.02 0.01,0.03 0,0.01 0,0.02 0,0.02 0,0.01 0,0.02 0.01,0.03 0,0.01 0,0.02 0,0.02 0,0.01 0,0.02 0,0.03 0.01,0.01 0.01,0.02 0.01,0.02 0,0.01 0,0.02 0,0.03 0,0.01 0,0.01 0,0.02 0.01,0.01 0.01,0.02 0.01,0.03 0,0.01 0,0.02 0,0.02 0,0.01 0.01,0.02 0.01,0.03 0,0.01 0,0.02 0,0.02 0,0.01 0,0.02 0,0.03 0.01,0.01 0.01,0.02 0.01,0.02 0,0.01 0,0.02 0,0.03 0,0.01 0,0.02 0.01,0.03 0,0 0,0.01 0,0.02 0,0.01 0,0.02 0,0.03 0.01,0 0.01,0.01 0.01,0.02 0,0.01 0,0.02 0,0.03 0,0.01 0,0.01 0.01,0.02 0,0.01 0,0.02 0,0.03 0,0.01 0,0.02 0,0.02 0,0.01 0.01,0.02 0.01,0.03 0,0.01 0,0.02 0,0.03 0,0 0,0.01 0.01,0.02 0,0.01 0,0.02 0,0.03 0,0.01 0,0.01 0,0.02 0.01,0.01 0.01,0.02 0.01,0.03 0,0.01 0,0.02 0,0.03 0,0 0,0.01 0,0.02 0.01,0.01 0.01,0.02 0.01,0.03 0,0.01 0,0.02 0,0.02 0,0.01 0.01,0.02 0.01,0.03 0,0.01 0,0.02 0,0.03 0,0.01 0,0.01 0.01,0.02 0,0.01 0,0.02 0,0.03 0,0.01 0,0.02 0,0.02 0,0.01 0.01,0.02 0.01,0.03 0,0.01 0,0.02 0,0.03 0,0.01 0,0.02 0.01,0.03 0,0 0,0.01 0,0.02 0,0.01 0,0.02 0,0.03 0.01,0.01 0.01,0.02 0.01,0.02 0,0.01 0,0.02 0,0.03 0,0.01 0,0.02 0.01,0.03 0,0.01 0,0.02 0,0.02 0,0.01 0,0.02 0,0.03 0.01,0.01 0.01,0.02 0.01,0.03 0,0.01 0,0.02 0,0.03 0,0 0.01,0.01 0.01,0.02 0,0.01 0,0.02 0,0.03 0,0.01 0,0.02 0,0.03 0.01,0.01 0.01,0.01 0.01,0.02 0,0.01 0,0.02 0,0.03 0,0.01 0.01,0.02 0.01,0.03 0,0.01 0,0.02 0,0.02 0,0.01 0.01,0.02 0.01,0.03 0,0.01 0,0.02 0,0.03 0,0.01 0,0.02 0,0.03 0.01,0 0.01,0.01 0.01,0.02 0,0.01 0,0.02 0,0.03 0,0.01 0.01,0.02 0.01,0.03 0,0.01 0,0.02 0,0.03 0,0.01 0,0.01 0.01,0.02 0,0.01 0,0.02 0,0.03 0,0.01 0,0.02 0,0.03 0.01,0.01 0.01,0.02 0.01,0.03 0,0.01 0,0.01 0,0.02 0,0.01 0.01,0.02 0.01,0.03 0,0.01 0,0.02 0,0.03 0,0.01 0,0.02 0.01,0.03 0,0.01 0,0.02 0,0.03 0,0 0,0.01 0,0.02 0,0.01 0.01,0.02 0.01,0.03 0,0.01 0,0.02 0,0.03 0,0.01 0.01,0.02 0.01,0.03 0,0.01 0,0.02 0,0.03 0,0 0,0.01 0.01,0.02 0,0.01 0,0.02 0,0.03 0,0.01 0,0.02 0,0.03 0.01,0.01 0.01,0.02 0.01,0.03 0,0.01 0,0.02 0,0.03 0,0.01 0.01,0.02 0.01,0.03 0,0 0,0.01 0,0.02 0,0.01 0,0.02 0.01,0.03 0,0.01 0,0.02 0,0.03 0,0.01 0,0.02 0,0.03 0.01,0.01 0.01,0.02 0.01,0.03 0,0.01 0,0.02 0,0.03 0,0.01 0.01,0.01 0.01,0.02 0,0.01 0,0.02 0,0.03 0,0.01 0.01,0.02 0.01,0.03 0,0.01 0,0.02 0,0.03 0,0.01 0,0.02 0.01,0.03 0,0.01 0,0.02 0,0.03 0,0.01 0,0.02 0,0.03 0.01,0.01 0.01,0.02 0.01,0.03 0,0.01 0,0.02 0,0.02 0.01,0.01 0.01,0.02 0.01,0.03 0,0.01 0,0.02 0,0.03 0,0.01 0,0.02 0.01,0.03 0,0.01 0,0.02 0,0.03 0,0.01 0,0.02 0.01,0.03 0,0.01 0,0.02 0,0.03 0,0.01 0,0.02 0.01,0.03 0,0.01 0,0.02 0,0.03 0,0.01 0,0.02 0,0.03 0,0.01 0.01,0.02 0.01,0.03 0,0.01 0,0.02 0,0.03 0,0.01 0.01,0.02 0.01,0.03 0,0.01 0,0.02 0,0.03 0,0.01 0.01,0.02 0.01,0.03 0,0.01 0,0.02 0,0.03 0,0 0,0.02 0.01,0.03 0,0 0,0.01 0,0.03 0,0 0,0.01 0,0.02 0.01,0.01 0.01,0.02 0.01,0.03 0,0.01 0,0.02 0,0.03 0.01,0.01 0.01,0.02 0.01,0.03 0,0.01 0,0.02 0,0.03 0,0.01 0.01,0.02 0.01,0.03 0,0.01 0,0.02 0,0.03 0,0.01 0.01,0.02 0.01,0.03 0,0.01 0,0.02 0,0.03 0,0.01 0.01,0.02 0.01,0.03 0,0.01 0,0.02 0,0.04 0,0 0,0.01 0.01,0.03 0,0 0,0.02 0,0.03 0,0 0,0.02 0,0.03 0.01,0.01 0.01,0.02 0.01,0.03 0,0.01 0,0.02 0,0.03 0.01,0.01 0.01,0.02 0.01,0.03 0,0.01 0,0.02 0,0.03 0,0.01 0.01,0.02 0.01,0.03 0,0.01 0,0.02 0,0.03 0,0.01 0.01,0.02 0.01,0.03 0,0.01 0,0.02 0,0.03 0,0.01 0.01,0.02 0.01,0.03 0,0.01 0,0.02 0,0.03 0,0.01 0,0.02 0.01,0.03 0,0.01 0,0.02 0,0.03 0,0.01 0,0.02 0.01,0.03 0,0.01 0,0.02 0,0.03 0,0.02 0,0.03 0.01,0.04 0,0.01 0,0.02 0,0.03 0,0.01 0,0.02 0,0.03 0.01,0.01 0.01,0.02 0.01,0.03 0,0.01 0,0.02 0,0.03 0.01,0.01 0.01,0.02 0.01,0.03 0,0.01 0,0.02 0,0.03 0.01,0.01 0.01,0.02 0.01,0.03 0,0.01 0,0.02 0,0.04 0.01,0.01 0.01,0.02 0.01,0.03 0,0.01 0,0.02 0,0.03 0.01,0.01 0.01,0.02 0.01,0.03 0,0.01 0,0.02 0,0.03 0.01,0.01 0.01,0.02 0.01,0.03 0,0.01 0,0.02 0,0.03 0,0.01 0.01,0.03 0.01,0.04 0,0.01 0,0.02 0,0.03 0,0.01 0.01,0.02 0.01,0.03 0,0.01 0,0.02 0,0.03 0,0.01 0.01,0.02 0.01,0.03 0,0.01 0,0.02 0,0.03l2.51 -0.38c0,-0.01 0,-0.02 0,-0.03 0,-0.01 -0.01,-0.02 -0.01,-0.04 0,-0.01 0,-0.02 0,-0.03 0,-0.01 0,-0.02 -0.01,-0.03 0,-0.01 0,-0.02 0,-0.03 0,-0.01 0,-0.02 -0.01,-0.03 0,-0.01 0,-0.02 0,-0.03 0,-0.01 0,-0.02 -0.01,-0.03 0,-0.02 0,-0.03 0,-0.04 0,-0.01 0,-0.02 0,-0.03 -0.01,-0.01 -0.01,-0.02 -0.01,-0.03 0,-0.01 0,-0.02 0,-0.03 -0.01,-0.01 -0.01,-0.02 -0.01,-0.03 0,-0.01 0,-0.02 -0.01,-0.03 0,-0.01 0,-0.02 0,-0.03 0,-0.02 0,-0.03 0,-0.04 -0.01,-0.01 -0.01,-0.02 -0.01,-0.03 0,-0.01 0,-0.02 0,-0.03 -0.01,-0.01 -0.01,-0.02 -0.01,-0.03 0,-0.01 0,-0.02 0,-0.03 -0.01,-0.01 -0.01,-0.02 -0.01,-0.03 0,-0.01 0,-0.02 0,-0.03 0,-0.01 -0.01,-0.02 -0.01,-0.03 0,-0.01 0,-0.02 0,-0.03 0,-0.01 -0.01,-0.02 -0.01,-0.04 0,0 0,-0.02 0,-0.03 0,-0.01 -0.01,-0.02 -0.01,-0.03 0,-0.01 0,-0.02 0,-0.03 0,-0.01 0,-0.02 -0.01,-0.03 0,-0.01 0,-0.02 0,-0.03 0,-0.01 0,-0.02 -0.01,-0.03 0,-0.01 0,-0.02 0,-0.03 0,-0.01 0,-0.02 -0.01,-0.03 0,-0.01 0,-0.02 0,-0.03 0,-0.01 0,-0.02 0,-0.03 -0.01,-0.01 -0.01,-0.02 -0.01,-0.03 0,-0.01 0,-0.02 0,-0.03 -0.01,-0.01 -0.01,-0.02 -0.01,-0.03 0,-0.01 0,-0.02 0,-0.03 0,-0.01 -0.01,-0.02 -0.01,-0.03 0,-0.01 0,-0.02 0,-0.03 0,-0.01 0,-0.02 -0.01,-0.03 0,-0.01 0,-0.02 0,-0.03 0,-0.01 0,-0.02 -0.01,-0.03 0,-0.01 0,-0.02 0,-0.03 0,-0.01 0,-0.02 -0.01,-0.03 0,-0.01 0,-0.02 0,-0.03 0,-0.01 0,-0.02 0,-0.03 -0.01,-0.01 -0.01,-0.02 -0.01,-0.03 0,-0.01 0,-0.02 0,-0.03 0,-0.01 -0.01,-0.02 -0.01,-0.03 0,-0.01 0,-0.02 0,-0.03 0,-0.01 -0.01,-0.02 -0.01,-0.03 0,-0.01 0,-0.02 0,-0.03 0,-0.01 0,-0.02 -0.01,-0.03 0,-0.01 0,-0.02 0,-0.03 0,-0.01 0,-0.02 -0.01,-0.03 0,-0.01 0,-0.02 0,-0.03 0,-0.01 0,-0.02 0,-0.03 -0.01,-0.01 -0.01,-0.02 -0.01,-0.03 0,-0.01 0,-0.02 0,-0.03 0,0 -0.01,-0.01 -0.01,-0.02 0,-0.01 0,-0.02 0,-0.03 0,-0.01 -0.01,-0.02 -0.01,-0.03 0,-0.01 0,-0.02 0,-0.03 0,-0.01 0,-0.02 -0.01,-0.03 0,-0.01 0,-0.02 0,-0.03 0,-0.01 0,-0.02 0,-0.03 -0.01,-0.01 -0.01,-0.02 -0.01,-0.03 0,-0.01 0,-0.02 0,-0.03 0,-0.01 -0.01,-0.02 -0.01,-0.03 0,-0.01 0,-0.01 0,-0.02 0,-0.01 -0.01,-0.02 -0.01,-0.03 0,-0.01 0,-0.02 0,-0.03 0,-0.01 0,-0.02 -0.01,-0.03 0,-0.01 0,-0.02 0,-0.03 0,-0.01 0,-0.02 0,-0.03 -0.01,-0.01 -0.01,-0.02 -0.01,-0.03 0,-0.01 0,-0.02 0,-0.03 -0.01,0 -0.01,-0.01 -0.01,-0.02 0,-0.01 0,-0.02 0,-0.03 0,-0.01 0,-0.02 -0.01,-0.03 0,-0.01 0,-0.02 0,-0.03 0,-0.01 0,-0.02 0,-0.03 -0.01,-0.01 -0.01,-0.02 -0.01,-0.02 0,-0.01 0,-0.02 0,-0.03 -0.01,-0.01 -0.01,-0.02 -0.01,-0.03 0,-0.01 0,-0.02 0,-0.03 0,-0.01 0,-0.02 -0.01,-0.03 0,-0.01 0,-0.02 0,-0.02 0,-0.01 0,-0.02 -0.01,-0.03 0,-0.01 0,-0.02 0,-0.03 0,-0.01 0,-0.02 0,-0.03 -0.01,-0.01 -0.01,-0.02 -0.01,-0.03 0,-0.01 0,-0.02 0,-0.02 0,-0.01 0,-0.02 -0.01,-0.03 0,-0.01 0,-0.02 0,-0.03 0,-0.01 0,-0.02 -0.01,-0.03 0,-0.01 0,-0.02 0,-0.03 0,0 0,-0.01 0,-0.02 -0.01,-0.01 -0.01,-0.02 -0.01,-0.03 0,-0.01 0,-0.02 0,-0.03 0,-0.01 0,-0.02 -0.01,-0.02 0,-0.01 0,-0.02 0,-0.03 0,-0.01 0,-0.02 0,-0.03 -0.01,-0.01 -0.01,-0.02 -0.01,-0.03 0,-0.01 0,-0.02 0,-0.03 0,0 -0.01,-0.01 -0.01,-0.02 0,-0.01 0,-0.02 0,-0.03 0,-0.01 0,-0.02 -0.01,-0.03 0,-0.01 0,-0.01 0,-0.02 0,-0.01 0,-0.02 0,-0.03 -0.01,-0.01 -0.01,-0.02 -0.01,-0.03 0,-0.01 0,-0.02 0,-0.02 0,-0.01 -0.01,-0.02 -0.01,-0.03 0,-0.01 0,-0.02 0,-0.03 0,-0.01 0,-0.02 0,-0.03 -0.01,0 -0.01,-0.01 -0.01,-0.02 0,-0.01 0,-0.02 0,-0.03 0,-0.01 -0.01,-0.02 -0.01,-0.03 0,0 0,-0.01 0,-0.02 0,-0.01 0,-0.02 -0.01,-0.03 0,-0.01 0,-0.02 0,-0.02 0,-0.01 0,-0.02 0,-0.03 0,-0.01 -0.01,-0.02 -0.01,-0.03 0,-0.01 0,-0.02 0,-0.02 0,-0.01 0,-0.02 -0.01,-0.03 0,-0.01 0,-0.02 0,-0.03 0,-0.01 0,-0.01 0,-0.02 -0.01,-0.01 -0.01,-0.02 -0.01,-0.03 0,-0.01 0,-0.02 0,-0.03 0,0 0,-0.01 -0.01,-0.02 0,-0.01 0,-0.02 0,-0.03 0,-0.01 0,-0.02 0,-0.02 -0.01,-0.01 -0.01,-0.02 -0.01,-0.03 0,-0.01 0,-0.02 0,-0.03 0,-0.01 0,-0.01 -0.01,-0.02 0,-0.01 0,-0.02 0,-0.03 0,-0.01 0,-0.02 0,-0.02 0,-0.01 -0.01,-0.02 -0.01,-0.03 0,-0.01 0,-0.02 0,-0.03 0,0 0,-0.01 -0.01,-0.02 0,-0.01 0,-0.02 0,-0.03 0,-0.01 0,-0.01 0,-0.02 -0.01,-0.01 -0.01,-0.02 -0.01,-0.03 0,-0.01 0,-0.02 0,-0.02 0,-0.01 0,-0.02 0,-0.03 -0.01,-0.01 -0.01,-0.02 -0.01,-0.03 0,0 0,-0.01 0,-0.02 0,-0.01 -0.01,-0.02 -0.01,-0.03 0,0 0,-0.01 0,-0.02 0,-0.01 0,-0.02 -0.01,-0.03 0,-0.01 0,-0.01 0,-0.02 0,-0.01 0,-0.02 0,-0.03 0,-0.01 0,-0.01 -0.01,-0.02 0,-0.01 0,-0.02 0,-0.03 0,-0.01 0,-0.01 0,-0.02 -0.01,-0.01 -0.01,-0.02 -0.01,-0.03 0,-0.01 0,-0.01 0,-0.02 0,-0.01 0,-0.02 -0.01,-0.03 0,-0.01 0,-0.01 0,-0.02 0,-0.01 0,-0.02 0,-0.03 0,-0.01 -0.01,-0.01 -0.01,-0.02 0,-0.01 0,-0.02 0,-0.03 0,-0.01 0,-0.01 0,-0.02 -0.01,-0.01 -0.01,-0.02 -0.01,-0.03 0,0 0,-0.01 0,-0.02 0,-0.01 -0.01,-0.02 -0.01,-0.03 0,0 0,-0.01 0,-0.02 0,-0.01 0,-0.02 0,-0.02 0,-0.01 -0.01,-0.02 -0.01,-0.03 0,-0.01 0,-0.02 0,-0.02 0,-0.01 0,-0.02 -0.01,-0.03 0,-0.01 0,-0.01 0,-0.02 0,-0.01 0,-0.02 0,-0.03 0,0 -0.01,-0.01 -0.01,-0.02 0,-0.01 0,-0.02 0,-0.03 0,0 0,-0.01 0,-0.02 0,-0.01 -0.01,-0.02 -0.01,-0.02 0,-0.01 0,-0.02 0,-0.03 0,-0.01 0,-0.01 0,-0.02 -0.01,-0.01 -0.01,-0.02 -0.01,-0.03 0,0 0,-0.01 0,-0.02 0,-0.01 -0.01,-0.02 -0.01,-0.02 0,-0.01 0,-0.02 0,-0.03 0,-0.01 0,-0.01 0,-0.02 0,-0.01 -0.01,-0.02 -0.01,-0.03 0,0 0,-0.01 0,-0.02 0,-0.01 0,-0.01 0,-0.02 -0.01,-0.01 -0.01,-0.02 -0.01,-0.03 0,0 0,-0.01 0,-0.02 0,-0.01 0,-0.02 -0.01,-0.02 0,-0.01 0,-0.02 0,-0.03 0,-0.01 0,-0.01 0,-0.02 0,-0.01 0,-0.02 -0.01,-0.02 0,-0.01 0,-0.02 0,-0.03 0,0 0,-0.01 0,-0.02 0,-0.01 -0.01,-0.02 -0.01,-0.02 0,-0.01 0,-0.02 0,-0.03 0,-0.01 0,-0.01 0,-0.02 -0.01,-0.01 -0.01,-0.02 -0.01,-0.02 0,-0.01 0,-0.02 0,-0.03 0,-0.01 0,-0.01 0,-0.02 -0.01,-0.01 -0.01,-0.02 -0.01,-0.02 0,-0.01 0,-0.02 0,-0.03 0,0 0,-0.01 -0.01,-0.02 0,-0.01 0,-0.01 0,-0.02 0,-0.01 0,-0.02 0,-0.02 0,-0.01 -0.01,-0.02 -0.01,-0.03 0,-0.01 0,-0.01 0,-0.02 0,-0.01 0,-0.02 0,-0.02 0,-0.01 0,-0.02 -0.01,-0.03 0,0 0,-0.01 0,-0.02 0,-0.01 0,-0.01 0,-0.02 0,-0.01 -0.01,-0.02 -0.01,-0.02 0,-0.01 0,-0.02 0,-0.03 0,0 0,-0.01 0,-0.02 -0.01,-0.01 -0.01,-0.01 -0.01,-0.02 0,-0.01 0,-0.02 0,-0.02 0,-0.01 0,-0.02 0,-0.03 0,0 -0.01,-0.01 -0.01,-0.02 0,-0.01 0,-0.01 0,-0.02 0,-0.01 0,-0.02 0,-0.02 -0.01,-0.01 -0.01,-0.02 -0.01,-0.03 0,0 0,-0.01 0,-0.02 0,-0.01 0,-0.01 0,-0.02 -0.01,-0.01 -0.01,-0.02 -0.01,-0.02 0,-0.01 0,-0.02 0,-0.02 0,-0.01 0,-0.02 0,-0.03 -0.01,0 -0.01,-0.01 -0.01,-0.02 0,-0.01 0,-0.01 0,-0.02 0,-0.01 0,-0.01 0,-0.02 -0.01,-0.01 -0.01,-0.02 -0.01,-0.02 0,-0.01 0,-0.02 0,-0.03 0,0 0,-0.01 -0.01,-0.02 0,0 0,-0.01 0,-0.02 0,-0.01 0,-0.01 0,-0.02 0,-0.01 0,-0.02 0,-0.02 -0.01,-0.01 -0.01,-0.02 -0.01,-0.02 0,-0.01 0,-0.02 0,-0.03 0,0 0,-0.01 0,-0.02 -0.01,0 -0.01,-0.01 -0.01,-0.02 0,0 0,-0.01 0,-0.02 0,-0.01 0,-0.01 0,-0.02 -0.01,-0.01 -0.01,-0.02 -0.01,-0.02 0,-0.01 0,-0.02 0,-0.02 0,-0.01 0,-0.02 0,-0.02 -0.01,-0.01 -0.01,-0.02 -0.01,-0.03 0,0 0,-0.01 0,-0.02 0,0 0,-0.01 0,-0.02 -0.01,-0.01 -0.01,-0.01 -0.01,-0.02 0,-0.01 0,-0.01 0,-0.02 0,-0.01 0,-0.01 0,-0.02 -0.01,-0.01 -0.01,-0.01 -0.01,-0.02 0,-0.01 0,-0.02 0,-0.02 0,-0.01 0,-0.02 0,-0.02 0,-0.01 -0.01,-0.02 -0.01,-0.02 0,-0.01 0,-0.02 0,-0.02 0,-0.01 0,-0.02 0,-0.03 0,0 -0.01,-0.01 -0.01,-0.02 0,0 0,-0.01 0,-0.02 0,0 0,-0.01 0,-0.02 0,0 -0.01,-0.01 -0.01,-0.02 0,0 0,-0.01 0,-0.02 0,0 0,-0.01 0,-0.02 0,0 0,-0.01 0,-0.02 -0.01,-0.01 -0.01,-0.01 -0.01,-0.02 0,-0.01 0,-0.01 0,-0.02 0,-0.01 0,-0.01 0,-0.02 -0.01,-0.01 -0.01,-0.01 -0.01,-0.02 0,-0.01 0,-0.01 0,-0.02 0,-0.01 0,-0.01 0,-0.02 -0.01,-0.01 -0.01,-0.01 -0.01,-0.02 0,-0.01 0,-0.01 0,-0.02 0,-0.01 0,-0.01 0,-0.02 0,-0.01 -0.01,-0.01 -0.01,-0.02 0,-0.01 0,-0.01 0,-0.02 0,-0.01 0,-0.01 0,-0.02 0,-0.01 0,-0.01 -0.01,-0.02 0,-0.01 0,-0.01 0,-0.02 0,-0.01 0,-0.01 0,-0.02 0,-0.01 0,-0.01 0,-0.02 -0.01,-0.01 -0.01,-0.01 -0.01,-0.02 0,0 0,-0.01 0,-0.02 0,-0.01 0,-0.01 0,-0.02 -0.01,0 -0.01,-0.01 -0.01,-0.02 0,0 0,-0.01 0,-0.02 0,0 0,-0.01 0,-0.02 0,0 0,-0.01 -0.01,-0.02 0,0 0,-0.01 0,-0.01 0,-0.01 0,-0.02 0,-0.02 0,-0.01 0,-0.02 0,-0.02 -0.01,-0.01 -0.01,-0.02 -0.01,-0.02 0,-0.01 0,-0.02 0,-0.02 0,-0.01 0,-0.01 0,-0.02 0,-0.01 -0.01,-0.01 -0.01,-0.02 0,-0.01 0,-0.01 0,-0.02 0,-0.01 0,-0.01 0,-0.02 0,0 0,-0.01 0,-0.02 -0.01,0 -0.01,-0.01 -0.01,-0.02 0,0 0,-0.01 0,-0.01 0,-0.01 0,-0.02 0,-0.02 0,-0.01 -0.01,-0.02 -0.01,-0.02 0,-0.01 0,-0.01 0,-0.02 0,-0.01 0,-0.01 0,-0.02 0,-0.01 0,-0.01 -0.01,-0.02 0,-0.01 0,-0.01 0,-0.02 0,0 0,-0.01 0,-0.02 0,0 0,-0.01 0,-0.01 0,-0.01 -0.01,-0.02 -0.01,-0.02 0,-0.01 0,-0.01 0,-0.02 0,-0.01 0,-0.01 0,-0.02 0,-0.01 0,-0.01 -0.01,-0.02 0,0 0,-0.01 0,-0.02 0,0 0,-0.01 0,-0.01 0,-0.01 0,-0.02 0,-0.02 -0.01,-0.01 -0.01,-0.01 -0.01,-0.02 0,-0.01 0,-0.01 0,-0.02 0,0 0,-0.01 0,-0.02 0,0 0,-0.01 0,-0.01 -0.01,-0.01 -0.01,-0.02 -0.01,-0.02 0,-0.01 0,-0.01 0,-0.02 0,-0.01 0,-0.01 0,-0.02 0,0 0,-0.01 -0.01,-0.02 0,0 0,-0.01 0,-0.01 0,-0.01 0,-0.02 0,-0.02 0,-0.01 0,-0.01 0,-0.02 -0.01,-0.01 -0.01,-0.01 -0.01,-0.02 0,0 0,-0.01 0,-0.02 0,0 0,-0.01 0,-0.01 0,-0.01 0,-0.01 0,-0.02 -0.01,-0.01 -0.01,-0.01 -0.01,-0.02 0,0 0,-0.01 0,-0.02 0,0 0,-0.01 0,-0.01 0,-0.01 0,-0.01 -0.01,-0.02 0,-0.01 0,-0.01 0,-0.02 0,0 0,-0.01 0,-0.01 0,-0.01 0,-0.02 0,-0.02 0,-0.01 -0.01,-0.01 -0.01,-0.02 0,-0.01 0,-0.01 0,-0.02 0,0 0,-0.01 0,-0.01 0,-0.01 0,-0.02 0,-0.02 0,-0.01 -0.01,-0.01 -0.01,-0.02 0,0 0,-0.01 0,-0.01 0,-0.01 0,-0.02 0,-0.02 0,-0.01 0,-0.01 0,-0.02 -0.01,0 -0.01,-0.01 -0.01,-0.02 0,0 0,-0.01 0,-0.01 0,-0.01 0,-0.01 0,-0.02 0,0 0,-0.01 -0.01,-0.02 0,0 0,-0.01 0,-0.01 0,-0.01 0,-0.01 0,-0.02 0,-0.01 0,-0.01 0,-0.02 0,0 0,-0.01 0,-0.01 -0.01,-0.01 -0.01,-0.01 -0.01,-0.02 0,0 0,-0.01 0,-0.02 0,0 0,-0.01 0,-0.01 0,-0.01 0,-0.01 -0.01,-0.02 0,0 0,-0.01 0,-0.01 0,-0.01 0,-0.02 0,-0.02 0,-0.01 0,-0.01 0,-0.02 0,0 0,-0.01 -0.01,-0.01 0,-0.01 0,-0.01 0,-0.02 0,-0.01 0,-0.01 0,-0.02 0,0 0,-0.01 0,-0.01 0,-0.01 0,-0.01 0,-0.02 -0.01,0 -0.01,-0.01 -0.01,-0.01 0,-0.01 0,-0.01 0,-0.02 0,-0.01 0,-0.01 0,-0.02 0,0 0,-0.01 -0.01,-0.01 0,-0.01 0,-0.01 0,-0.02 0,0 0,-0.01 0,-0.01 0,-0.01 0,-0.01 0,-0.02 0,0 0,-0.01 -0.01,-0.01 0,-0.01 0,-0.02 0,-0.02 0,-0.01 0,-0.01 0,-0.02 0,0 0,-0.01 0,-0.01 0,-0.01 0,-0.01 0,-0.02 0,0 -0.01,-0.01 -0.01,-0.01 0,-0.01 0,-0.01 0,-0.02 0,0 0,-0.01 0,-0.01 0,-0.01 0,-0.01 0,-0.02 0,0 -0.01,-0.01 -0.01,-0.01 0,-0.01 0,-0.01 0,-0.02 0,0 0,-0.01 0,-0.01 0,-0.01 0,-0.01 0,-0.02 0,-0.01 -0.01,-0.01 -0.01,-0.01 0,-0.01 0,-0.01 0,-0.02 0,-0.01 0,-0.01 0,-0.01 0,-0.01 0,-0.02 0,-0.02 0,-0.01 0,-0.01 0,-0.01 -0.01,-0.01 -0.01,-0.01 -0.01,-0.02 0,-0.01 0,-0.01 0,-0.01 0,-0.01 0,-0.01 0,-0.02 0,0 0,-0.01 0,-0.01 0,-0.01 -0.01,-0.01 -0.01,-0.02 0,0 0,-0.01 0,-0.01 0,-0.01 0,-0.01 0,-0.02 0,0 0,-0.01 0,-0.01 0,-0.01 0,-0.01 -0.01,-0.02 0,0 0,-0.01 0,-0.01 0,-0.01 0,-0.01 0,-0.02 0,0 0,-0.01 0,-0.01 0,-0.01 0,-0.01 0,-0.02 0,0 -0.01,-0.01 -0.01,-0.01 0,0 0,-0.01 0,-0.01 0,-0.01 0,-0.01 0,-0.02 0,0 0,-0.01 0,-0.01 0,-0.01 0,-0.01 -0.01,-0.02 0,0 0,-0.01 0,-0.01 0,-0.01 0,-0.01 0,-0.02 0,0 0,0 0,-0.01 0,0 0,-0.01 0,-0.01 0,-0.01 -0.01,-0.01 -0.01,-0.02 0,0 0,-0.01 0,-0.01 0,-0.01 0,-0.01 0,-0.02 0,0 0,0 0,-0.01 0,0 0,-0.01 0,-0.01 0,-0.01 -0.01,-0.01 -0.01,-0.02 0,0 0,-0.01 0,-0.01 0,-0.01 0,-0.01 0,-0.01 0,-0.01 0,-0.01 0,-0.02 0,0 0,-0.01 0,-0.01 -0.01,-0.01 -0.01,-0.01 -0.01,-0.01 0,-0.01 0,-0.01 0,-0.02 0,0 0,-0.01 0,-0.01 0,-0.01 0,-0.01 0,-0.02 0,0 0,0 -0.01,-0.01 0,0 0,-0.01 0,-0.01 0,-0.01 0,-0.01 0,-0.01 0,-0.01 0,-0.01 0,-0.02 0,0 0,-0.01 0,-0.01 0,-0.01 0,-0.01 -0.01,-0.01 0,-0.01 0,-0.01 0,-0.02 0,0 0,-0.01 0,-0.01 0,-0.01 0,-0.01 0,-0.01 0,-0.01 0,-0.01 0,-0.02 0,0 0,-0.01 -0.01,-0.01 0,0 0,-0.01 0,-0.01 0,-0.01 0,-0.01 0,-0.02 0,0 0,0 0,-0.01 0,0 0,-0.01 0,-0.01 0,-0.01 -0.01,-0.01 -0.01,-0.01 0,-0.01 0,-0.01 0,-0.02 0,0 0,0 0,-0.01 0,0 0,-0.01 0,-0.01 0,-0.01 0,-0.01 0,-0.01 0,-0.01 0,-0.01 0,-0.02 -0.01,0 -0.01,0 -0.01,-0.01 0,0 0,-0.01 0,-0.01 0,-0.01 0,-0.01 0,-0.01 0,-0.01 0,-0.01 0,-0.02 0,0 0,0 0,-0.01 -0.01,0 -0.01,-0.01 -0.01,-0.01 0,0 0,-0.01 0,-0.01 0,-0.01 0,-0.01 0,-0.01 0,-0.01 0,-0.01 0,-0.02 0,0 0,-0.01 0,-0.01 0,0 -0.01,-0.01 -0.01,-0.01 0,-0.01 0,-0.01 0,-0.01 0,-0.01 0,-0.01 0,-0.01 0,-0.01 0,-0.01 0,-0.02 0,0 0,-0.01 0,-0.01 0,0 0,-0.01 0,-0.01 -0.01,0 -0.01,-0.01 -0.01,-0.01 0,-0.01 0,-0.01 0,-0.01 0,-0.01 0,-0.01 0,-0.02 0,0 0,0 0,-0.01 0,0 0,0 0,-0.01 0,0 0,-0.01 -0.01,-0.01 0,0 0,-0.01 0,-0.01 0,-0.01 0,-0.01 0,-0.01 0,-0.01 0,-0.01 0,-0.02 0,0 0,0 0,-0.01 0,0 0,0 0,-0.01 -0.01,0 -0.01,-0.01 -0.01,-0.01 0,0 0,-0.01 0,-0.01 0,0 0,-0.01 0,-0.01 0,-0.01 0,-0.01 0,-0.01 0,-0.01 0,-0.01 0,-0.01 0,-0.01 0,-0.01 0,-0.02 0,0 -0.01,0 -0.01,-0.01 0,0 0,0 0,-0.01 0,0 0,0 0,-0.01 0,0 0,0 0,-0.01 0,0 0,-0.01 0,-0.01 0,0 0,-0.01 0,-0.01 -0.01,0 -0.01,-0.01 -0.01,-0.01 0,0 0,-0.01 0,-0.01 0,-0.01 0,-0.01 0,-0.01 0,-0.01 0,-0.01 0,-0.01 0,-0.01 0,-0.01 0,-0.01 0,-0.01 0,-0.01 0,-0.01 -0.01,-0.01 -0.01,-0.01 -0.01,-0.01 0,-0.01 0,-0.01 0,-0.02 0,0 0,0 0,-0.01 0,0 0,0 0,-0.01 0,0 0,0 0,-0.01 0,0 0,0 0,-0.01 0,0 0,0 -0.01,-0.01 0,0 0,0 0,-0.01 0,0 0,0 0,-0.01 0,0 0,0 0,-0.01 0,0 0,0 0,-0.01 0,0 0,0 0,-0.01 0,0 0,0 -0.01,-0.01 0,0 0,0 0,-0.01 0,0 0,0 0,-0.01 0,0 0,0 0,-0.01 0,0 0,0 0,-0.01 0,0 0,0 0,-0.01 0,0 0,0 0,-0.01l-2.51 0.39zm1.63 10.64c0.83,5.36 3.01,12.28 6.51,20.74l2.35 -0.97c-3.47,-8.39 -5.57,-15.09 -6.35,-20.15l-2.51 0.38zm8.47 21.25c16.36,-12.85 34.88,-22.67 55.58,-29.46l-0.79 -2.42c-20.96,6.88 -39.75,16.84 -56.36,29.88l1.57 2zm55.6 -29.47c10.11,-3.48 19.03,-5.81 26.77,-7l-0.39 -2.51c-7.93,1.22 -17,3.59 -27.21,7.11l0.83 2.4zm26.77 -7c9.63,-1.48 17.25,-1.1 22.96,1.02 5.66,2.1 9.51,5.92 11.63,11.53l2.37 -0.9c-2.38,-6.3 -6.78,-10.66 -13.11,-13.01 -6.28,-2.33 -14.39,-2.67 -24.24,-1.15l0.39 2.51zm34.56 12.47c0.48,1.57 0.82,3.03 1.02,4.38l2.51 -0.39c-0.22,-1.49 -0.59,-3.07 -1.1,-4.73l-2.43 0.74zm1.02 4.38c1.17,7.56 -1.72,16.3 -9.07,26.27l2.05 1.51c7.53,-10.23 10.85,-19.65 9.53,-28.17l-2.51 0.39zm-9.07 26.27c-12.89,17.5 -36.52,34.62 -71.07,51.3l1.1 2.28c34.69,-16.74 58.76,-34.07 72.02,-52.07l-2.05 -1.51zm-71.42 53.34c17.63,17.52 35.79,28.59 54.5,33.09l0.6 -2.47c-18.15,-4.36 -35.92,-15.13 -53.31,-32.42l-1.79 1.8zm54.48 33.08c12.44,3.19 22.06,4.34 28.73,3.31l-0.38 -2.51c-6.15,0.95 -15.35,-0.09 -27.71,-3.26l-0.64 2.46zm28.73 3.31c6.53,-1 11.19,-3.18 13.42,-6.88l-2.17 -1.31c-1.64,2.71 -5.33,4.72 -11.63,5.68l0.38 2.51zm13.36 -6.78c2.37,-3.22 3.37,-6.59 2.84,-10.07l-2.51 0.39c0.41,2.68 -0.32,5.38 -2.38,8.17l2.05 1.51zm2.84 -10.07c-0.51,-3.29 -2.98,-6.71 -6.98,-10.28l-1.69 1.9c3.89,3.46 5.79,6.38 6.16,8.77l2.51 -0.39zm-6.95 -10.25c-8.88,-8.45 -20.46,-11.52 -34.55,-9.35l0.39 2.51c13.47,-2.07 24.2,0.88 32.41,8.68l1.75 -1.84zm-34.55 -9.35c-1.47,0.23 -3.75,0.7 -6.8,1.42l0.57 2.47c3.05,-0.71 5.25,-1.17 6.62,-1.38l-0.39 -2.51zm-6.91 1.45c-1.37,0.44 -2.3,0.66 -2.86,0.69 -0.29,0.02 -0.35,-0.01 -0.28,0.01 0.15,0.06 0.41,0.26 0.46,0.61l-2.51 0.39c0.11,0.7 0.59,1.16 1.12,1.37 0.46,0.18 0.96,0.19 1.39,0.16 0.88,-0.06 2.06,-0.36 3.47,-0.82l-0.79 -2.41zm-2.83 0.88c-0.14,-0.26 -0.15,-0.41 -0.14,-0.5 0.02,-0.09 0.07,-0.26 0.3,-0.51 0.51,-0.54 1.61,-1.18 3.53,-1.83l-0.82 -2.41c-2,0.68 -3.6,1.49 -4.56,2.5 -0.5,0.53 -0.86,1.17 -0.96,1.91 -0.11,0.74 0.08,1.45 0.44,2.09l2.21 -1.25zm3.66 -2.83c6.21,-1.92 12.02,-3.29 17.41,-4.12l-0.39 -2.51c-5.53,0.85 -11.46,2.25 -17.77,4.2l0.75 2.43zm17.41 -4.12c14.99,-2.31 25.97,0.18 33.26,7.1l1.75 -1.84c-8.09,-7.67 -19.99,-10.14 -35.4,-7.77l0.39 2.51zm33.32 7.15c3.75,3.14 5.77,6.42 6.29,9.81l2.51 -0.39c-0.64,-4.18 -3.11,-7.96 -7.17,-11.36l-1.63 1.94zm6.29 9.81c0.57,3.71 -0.16,7.68 -2.3,11.96l2.27 1.14c2.32,-4.64 3.21,-9.15 2.54,-13.49l-2.51 0.39zm-2.31 11.98c-4,8.41 -11.74,13.59 -23.55,15.41l0.38 2.51c12.42,-1.91 21.01,-7.47 25.46,-16.83l-2.29 -1.09zm-23.55 15.41c-9.3,1.43 -19.45,0.74 -30.45,-2.11l-0.64 2.46c11.28,2.92 21.77,3.65 31.47,2.16l-0.38 -2.51zm-30.46 -2.11c-25.91,-6.61 -48.42,-17.22 -67.55,-31.82l-1.54 2.02c19.43,14.83 42.26,25.57 68.47,32.26l0.62 -2.46zm22.25 -114.11c-0.29,-1.89 -1.04,-3.52 -2.29,-4.83 -1.24,-1.31 -2.9,-2.24 -4.9,-2.85 -3.98,-1.21 -9.5,-1.21 -16.44,-0.14l0.38 2.51c6.83,-1.05 11.89,-0.99 15.32,0.06 1.69,0.51 2.93,1.25 3.8,2.16 0.85,0.91 1.4,2.04 1.62,3.47l2.51 -0.38zm-23.63 -7.82c-23.51,3.61 -51.79,15.29 -84.82,34.93l1.3 2.18c32.9,-19.56 60.86,-31.06 83.9,-34.6l-0.38 -2.51zm-85.32 36.56c7.63,16.15 17.59,30.72 29.87,43.72l1.85 -1.75c-12.1,-12.8 -21.91,-27.15 -29.42,-43.05l-2.3 1.08zm31.35 43.99c27.71,-13.51 49.59,-29.66 65.57,-48.48l-1.93 -1.65c-15.71,18.5 -37.28,34.46 -64.75,47.84l1.11 2.29zm65.57 -48.48c4.37,-5.06 7.58,-9.6 9.6,-13.6 2.02,-3.98 2.91,-7.56 2.43,-10.65l-2.51 0.38c0.36,2.35 -0.28,5.36 -2.18,9.12 -1.9,3.75 -4.97,8.11 -9.27,13.1l1.93 1.65zm-150.19 65.81c8.25,1.95 16.96,2.21 26.13,0.8l-0.38 -2.51c-8.88,1.36 -17.27,1.11 -25.16,-0.76l-0.59 2.47zm26.13 0.8c14.8,-2.28 28.34,-5.7 40.62,-10.27l-0.89 -2.38c-12.09,4.5 -25.46,7.89 -40.11,10.14l0.38 2.51zm41 -12.43c-14.18,-12.02 -24.87,-24.41 -32.11,-37.17l-2.21 1.25c7.43,13.08 18.33,25.69 32.67,37.86l1.65 -1.94zm-34.02 -37.53c-3.68,3 -6.63,5.52 -8.84,7.58 -2.18,2.03 -3.72,3.68 -4.5,4.9l2.14 1.37c0.59,-0.92 1.91,-2.38 4.09,-4.41 2.15,-2 5.05,-4.49 8.72,-7.47l-1.61 -1.97zm-13.29 12.41c-0.7,0.95 -1.24,1.65 -1.62,2.1 -0.2,0.23 -0.33,0.38 -0.42,0.46 -0.04,0.04 -0.05,0.04 -0.03,0.02 0.02,0 0.05,-0.03 0.11,-0.06 0.05,-0.02 0.16,-0.07 0.32,-0.1l0.38 2.51c0.34,-0.05 0.58,-0.21 0.66,-0.27 0.12,-0.08 0.23,-0.18 0.31,-0.26 0.19,-0.18 0.39,-0.4 0.61,-0.66 0.43,-0.52 1.01,-1.27 1.72,-2.23l-2.04 -1.51zm-0.7 2.65c0.11,0.09 0.18,0.17 0.21,0.22 0.02,0.03 0.03,0.05 0.04,0.06 0,0.01 0.01,0.02 0.01,0.02 0,0 -0.01,0 -0.01,-0.02 0,-0.01 -0.01,-0.02 -0.01,-0.04 -0.01,-0.04 -0.02,-0.1 -0.04,-0.17 -0.04,-0.32 -0.07,-0.81 -0.06,-1.51l-2.54 -0.03c-0.01,0.75 0.01,1.41 0.09,1.92 0.04,0.26 0.1,0.53 0.2,0.77 0.09,0.23 0.26,0.58 0.61,0.84l1.5 -2.06zm0.14 -1.48c-0.08,-4.79 3.2,-11.19 10.43,-19.31l-1.9 -1.69c-7.28,8.17 -11.17,15.21 -11.07,21.05l2.54 -0.05zm10.21 -19.11l0.66 -0.47 -1.46 -2.08 -0.66 0.47 1.46 2.08zm1.08 -2.05c-4.99,-10.51 -8.25,-20.78 -9.79,-30.82l-2.51 0.39c1.58,10.31 4.92,20.82 10,31.52l2.3 -1.09zm-11.87 -31.59l-9.35 7.98 1.65 1.93 9.35 -7.98 -1.65 -1.93zm-9.4 8.02c-11.75,11.07 -20.39,22.06 -25.88,32.99l2.28 1.13c5.31,-10.58 13.74,-21.35 25.34,-32.27l-1.74 -1.85zm-25.89 33c-5.22,10.87 -7.24,20.76 -5.88,29.6l2.51 -0.38c-1.26,-8.18 0.58,-17.54 5.66,-28.11l-2.29 -1.11zm-5.88 29.6c1.43,9.32 9.3,15.09 22.54,17.72l0.49 -2.49c-12.85,-2.56 -19.33,-7.89 -20.52,-15.61l-2.51 0.38zm127.16 -154.43c9.51,-11.19 14,-20.93 12.74,-29.08l-2.51 0.39c1.08,6.98 -2.74,15.96 -12.17,27.05l1.94 1.64zm12.74 -29.08c-0.63,-4.11 -2.2,-7.25 -4.9,-9.16 -2.68,-1.9 -6.24,-2.4 -10.46,-1.75l0.39 2.51c3.85,-0.59 6.65,-0.07 8.6,1.31 1.95,1.38 3.29,3.78 3.86,7.48l2.51 -0.39zm-15.36 -10.91c-9.63,1.48 -20.23,7.76 -31.78,18.55l1.73 1.86c11.41,-10.66 21.55,-16.53 30.44,-17.9l-0.39 -2.51zm-31.78 18.55c-22.2,20.58 -32.43,46.23 -30.67,76.85l2.53 -0.14c-1.71,-29.88 8.24,-54.79 29.87,-74.85l-1.73 -1.86zm-28.59 77.75c3.86,-3.24 10.44,-8.48 19.78,-15.73l-1.55 -2.01c-9.34,7.25 -15.97,12.52 -19.86,15.8l1.63 1.94zm19.81 -15.75c19.47,-15.84 33.88,-29.37 43.19,-40.57l-1.96 -1.62c-9.15,11.01 -23.42,24.42 -42.84,40.22l1.61 1.97z"></path> <path class="fil0" d="M1210.51 1503.12c-21.05,8.57 -38.53,12.71 -52.43,12.42 -25.11,-0.49 -41.98,-6.62 -50.59,-18.37 -3.07,-4.13 -4.86,-7.85 -5.37,-11.16 -0.54,-3.55 -0.74,-6.42 -0.59,-8.62 0.29,-7.56 3.61,-16.06 9.93,-25.5 6.56,-9.49 16.15,-19.08 28.76,-28.76l16.94 -13.14c-1.76,-39.93 17.89,-77.34 58.96,-112.22 16.1,-13.86 30.2,-21.72 42.32,-23.59 4.03,-0.62 7.81,-0.59 11.31,0.08 8.28,1.63 12.98,6.12 14.1,13.45 1.97,12.77 -4.66,27.35 -19.89,43.74 -8.3,9.27 -17.52,18.07 -27.66,26.41l-56.31 46.44c0.26,1.65 0.8,5.2 1.64,10.64 0.8,5.21 2.94,12.02 6.42,20.44 16.49,-12.94 35.15,-22.84 55.97,-29.67 10.16,-3.5 19.16,-5.85 27,-7.06 19.47,-2.99 31.46,1.46 35.96,13.36 0.5,1.62 0.85,3.13 1.07,4.55 1.24,8.05 -1.87,17.12 -9.31,27.22 -13.07,17.75 -36.92,34.98 -71.54,51.69 17.5,17.4 35.47,28.32 53.9,32.75 12.4,3.18 21.81,4.28 28.22,3.29 6.41,-0.99 10.59,-3.08 12.53,-6.29 2.21,-3 3.08,-6.04 2.6,-9.11 -0.43,-2.84 -2.62,-6.02 -6.57,-9.53 -8.54,-8.13 -19.7,-11.13 -33.47,-9.01 -1.43,0.22 -3.67,0.68 -6.72,1.39 -2.77,0.91 -4.22,1.01 -4.33,0.31 -1,-1.79 0.46,-3.34 4.39,-4.68 6.27,-1.93 12.13,-3.31 17.59,-4.15 15.2,-2.34 26.65,0.14 34.33,7.43 3.91,3.27 6.15,6.8 6.74,10.59 0.61,4.02 -0.19,8.26 -2.42,12.72 -4.23,8.88 -12.4,14.25 -24.51,16.12 -9.5,1.46 -19.82,0.74 -30.96,-2.14 -26.06,-6.65 -48.73,-17.33 -68.01,-32.04zm89.32 -83.11c-1.02,-6.63 -8.42,-8.88 -22.19,-6.76 -23.28,3.58 -51.39,15.17 -84.36,34.77 7.57,16.03 17.45,30.49 29.65,43.38 27.59,-13.44 49.31,-29.49 65.16,-48.16 8.66,-10.05 12.57,-17.79 11.74,-23.23zm-160.68 88.64c8.08,1.9 16.62,2.16 25.65,0.77 14.72,-2.26 28.18,-5.66 40.37,-10.2 -14.26,-12.09 -25.06,-24.6 -32.39,-37.51 -7.35,5.97 -11.71,10.03 -13.08,12.18 -1.41,1.91 -2.23,2.88 -2.47,2.92 -0.27,-0.2 -0.4,-1.03 -0.38,-2.48 -0.09,-5.32 3.49,-12.04 10.75,-20.18l0.66 -0.47c-5.04,-10.6 -8.34,-20.99 -9.9,-31.16l-9.35 7.97c-11.68,11 -20.21,21.88 -25.61,32.64 -5.16,10.72 -7.08,20.34 -5.77,28.85 1.31,8.52 8.48,14.07 21.52,16.67zm103.41 -171.73c9.47,-11.14 13.62,-20.5 12.46,-28.07 -1.2,-7.8 -5.84,-11.09 -13.92,-9.84 -9.26,1.42 -19.63,7.5 -31.11,18.22 -21.91,20.32 -32,45.6 -30.27,75.85 3.88,-3.26 10.49,-8.51 19.82,-15.76 19.45,-15.83 33.79,-29.29 43.02,-40.4z"></path> </g> </svg> 